/* XPM */
static char *result[] = {
/* columns rows colors chars-per-pixel */
"32 32 12 1 ",
"  c black",
". c gray8",
"X c #382020",
"o c #471A14",
"O c #644C4C",
"+ c #873838",
"@ c #CC6161",
"# c #ADBC3A",
"$ c #74A334",
"% c #FF918F",
"& c #C7B8BA",
"* c #FFC4C7",
/* pixels */
"$$$$$$$$$$$$$$$$$$$$$$$$$$$$$$$$",
"$$#$$$$$$$$$$$$$$$#$$$$$$$$$$$$$",
"$#$$$$$$$$$$$$$$$#$$$$$$$$$$$$$$",
"$$$$$$$$$$$$$$$$$$$$$$$$$$$$$$$$",
"$$$$$$$$$$$$$$$$$$$$$$$$$$$$$$$$",
"$$$$$$$$$$$$$$$$$$$$$$$$$$$$$$$$",
"$$$$$$$$$$$$$$$$$$$$$$$$$$$$$$$$",
"$$$$$$$$$$$$$$$$$$$$$$$$$$$$$$$$",
"$$$$$$$$$$    $$$$$$$$$$$$$$$$$$",
"$$$$$$$$  @@@@  $$$$$$$$$$$$$$$$",
"$$$$$$$ @%%%%%@@  $$$$$$$$$$$$$$",
"$$$$$$ @%**%%% %@@ $$$$$$$$$$$$$",
"$$$$$ @%***%%%@ %@ $$$$$$$$$$$$$",
"$$$$$ %***%%%%@ %@ $$$$$$$$$# $$",
"$$$$ @%**%%%%%%@   $$$$$$$$$$@ $",
"$$$   %%%&&&%%%%@@          $% $",
"$$ @@@%%%&.&%%%%%%@@@@@@@@@@  $$",
"$$ @o%%%%&&&%%%@ %%%%%%%%%%%@ $$",
"$# @o%%%%%%%%%%@ %%%*****%%%+ $$",
"$$$ @@%%%%%%%%@ @%%*******%++ $$",
"$$$$  @@%%%%@@ @%%%*******%++ $$",
"$$$$$$  @@@@  @%%%%%******%++ $$",
"$$$$$$$$    @@%%%%%%%%***%+o+o $",
"$$$$$$$$ o@@%%%%%%%%%%%%%%oooo $",
"$$$$$$$$ oo@@%%%%%@%%@%%%o  oX $",
"$$$$$$$ oo   @@%%@o@@ @@@ $ X $$",
"$$$$$$ XXX $$ X@@o    @@@ $   $$",
"$$$$$$    $$$ XOX $$ XOX $$$$$$$",
"$$$$$$$$$$$$$$   $$$$   $$$$$$$$",
"$$$$$$$$$$$$#$$$$$$$$$$$$$$$#$$$",
"$$$$$$$$$$$$$#$$$$$$$$$$$$$$$#$$",
"$$$$$$$$$$$$$$$$$$$$$$$$$$$$$$$$"
};
