/* XPM */
static char *result[] = {
/* columns rows colors chars-per-pixel */
"32 32 10 1 ",
"  c black",
". c #382020",
"X c #471A14",
"o c #644C4C",
"O c #873838",
"+ c #CC6161",
"# c #74A334",
"@ c #ADBC3A",
"$ c #FF918F",
"% c #FFC4C7",
/* pixels */
"################################",
"##@###############@#############",
"#@###############@##############",
"################################",
"################################",
"################################",
"###########  ######  ###########",
"#########  ++      ++  #########",
"######## ++$$++++++$$++ ########",
"######## +$$$$%%%%$$$$+ ########",
"####### +$$$$$$%%$$$$$$+ #######",
"####### $ +$$$$$$$$$$+ $ #######",
"######## +$$$++++++$$$+ ########",
"######## +$++      ++$+ ####@###",
"######## ++  ++++++  ++ #####@##",
"######## + ++$$$$$$++ + ########",
"########  +$$$%%%%$$$+  ########",
"##@#### ++$$$%%%%%%$$$++ #######",
"#@##### +$$$%%%%%%%%$$$+ #######",
"####### +$$$%%%$$%%%$$$+ #######",
"####### +$$$$%  +$%$$$$+ #######",
"####### +$$$$$$+ $$$$$$+ #######",
"####### +$$$$$$$ $$$$$$+ #######",
"####### +$$$$$$ +$$$$$$+ #######",
"####### +$$$$$$$$$$$$$$+ #######",
"######## +$$$$$$$$$$$$+ ########",
"######## +$$$$$+++$$$$+ ########",
"######### +$$$+XX +$$+ #########",
"########## +%%+   +++ ##########",
"########## ++..O #   #######@###",
"########### .oo. ############@##",
"###########     ################"
};
