/* XPM */
static char *_b2ebc95d2ce439f9248236efe4f377bqwzjqOgLRZLJ7iym[] = {
/* columns rows colors chars-per-pixel */
"32 32 14 1 ",
"  c black",
". c gray8",
"X c #17111A",
"o c #382020",
"O c #372538",
"+ c #471A14",
"@ c #3E375C",
"# c #644C4C",
"$ c #CC6161",
"% c #ADBC3A",
"& c #74A334",
"* c #FF918F",
"= c #C7B8BA",
"- c #FFC4C7",
/* pixels */
"&&&&&&&&&&&&&&&&&&&&&&&&&&&&&&&&",
"&&%&&&&&&&&&&&&&&&%&&&&&&&&&&&&&",
"&%&&&&&&&&&&&&&&&%&&&&&&&&&&&&&&",
"&&&&&&&&&&&&&&&&&&&&&&&&&&&&&&&&",
"&&&XXX&&&&&&&      &&&&&&&XXX&&&",
"&&X@@@XXXXX  $$$$$$  XXXXX@@@X&&",
"&&X@@@@@@@ $***--***$ @@@@@@@X&&",
"&&XOO@@@@ $****--****$ @@@@OOX&&",
"&&&XOOXX $  ***--***  $ XXOOX&&&",
"&&&XOOOO  **        **  OOOOX&&&",
"&&X@@@OO *****----***** OO@@@X&&",
"&&X@@@@ *** *------* *** @@@@X&&",
"&X@@@@@ ** **------** ** @@@@@X&",
"&X@@@@@    **------**    @@@@@X&",
"&X@@@@@ $ ****----**** $ @@@@@X&",
"&X@@@@@ * *===*--*===* * @@@@@X&",
"&X@@@@@ * *=.=*--*=.=* * @@@@OX&",
"&&X@@@@ * *===*--*===* * @@OOX&&",
"&%X@@@@ * **** $$ **** * @OOOX&&",
"&&&X@@@ * *** $**$ *** * OOOX&&&",
"&&&X@@@@ $ ** +$$+ ** $ OOOOX&&&",
"&&&&X@@@ $$ ******** $$ OOOX&&&&",
"&&&&&XOO $*$        $*$ OOX&&&&&",
"&&&&&&XO@ $*$$$$$$$$*$ OOX&&&&&&",
"&&&&&&XOO $**********$ OOX&&&&&&",
"&&&&&&XOO $***$$$$***$ OOX&&&&&&",
"&&&&&XOOOX $$$    $$$ XOOOX&&&&&",
"&&&&&XOOX& o#o XX o#o &XOOX&&&&&",
"&&&&&XOOX&&   &&&&   &&XOOX&&&&&",
"&&&&&&XX&&&&%&&&&&&&&&&&XX&&%&&&",
"&&&&&&&&&&&&&%&&&&&&&&&&&&&&&%&&",
"&&&&&&&&&&&&&&&&&&&&&&&&&&&&&&&&"
};
