/* XPM */
static char *c290817cd1b34d858852388abfca0a20Egtd5ZMjkUA0nhcH[] = {
/* columns rows colors chars-per-pixel */
"32 32 139 2 ",
"   c None",
".  c #724E34",
"X  c #755135",
"o  c #795337",
"O  c #77553A",
"+  c #7D5639",
"@  c #7B593E",
"#  c #7C593E",
"$  c #7E5B3E",
"%  c #855239",
"&  c #855339",
"*  c #88553B",
"=  c #88563B",
"-  c #8B563C",
";  c #8B573C",
":  c #81593B",
">  c #8A583D",
",  c #8B583D",
"<  c #8C583C",
"1  c #8C583D",
"2  c #8D593D",
"3  c #8C593E",
"4  c #8E593E",
"5  c #8C5A3E",
"6  c #8D5A3E",
"7  c #8D5B3F",
"8  c #8E5A3E",
"9  c #8F5A3E",
"0  c #8F5A3F",
"q  c #8F5B3F",
"w  c #8F5C3F",
"e  c #905B3F",
"r  c #8E5C40",
"t  c #8F5D40",
"y  c #905C40",
"u  c #915C40",
"i  c #905D40",
"p  c #915E41",
"a  c #925E41",
"s  c #925F41",
"d  c #935F41",
"f  c #925F42",
"g  c #935F42",
"h  c #8A6445",
"j  c #8B6546",
"k  c #8C6546",
"l  c #8E6747",
"z  c #936042",
"x  c #936143",
"c  c #946042",
"v  c #946043",
"b  c #946143",
"n  c #956143",
"m  c #956244",
"M  c #956344",
"N  c #966344",
"B  c #966345",
"V  c #966445",
"C  c #976445",
"Z  c #976446",
"A  c #976546",
"S  c #986546",
"D  c #986646",
"F  c #996646",
"G  c #986647",
"H  c #996647",
"J  c #996747",
"K  c #906948",
"L  c #936B4A",
"P  c #9A6848",
"I  c #9A6948",
"U  c #9B6949",
"Y  c #9B6A49",
"T  c #9C6A49",
"R  c #9D6A49",
"E  c #9C6A4A",
"W  c #9C6B4A",
"Q  c #9D6B4A",
"!  c #9D6C4B",
"~  c #9D6D4B",
"^  c #9E6C4B",
"/  c #9E6D4B",
"(  c #9E6D4C",
")  c #9E6E4C",
"_  c #9F6E4C",
"`  c #9F6F4D",
"'  c #9E7450",
"]  c #A06F4D",
"[  c #A16F4D",
"{  c #A0704D",
"}  c #A0704E",
"|  c #A1704E",
" . c #A1714E",
".. c #A2704E",
"X. c #A2714E",
"o. c #A2714F",
"O. c #A3714F",
"+. c #A2724F",
"@. c #A3724F",
"#. c #A2734F",
"$. c #A37350",
"%. c #A47350",
"&. c #A37450",
"*. c #A47450",
"=. c #A47551",
"-. c #A57551",
";. c #A57652",
":. c #A57752",
">. c #A67652",
",. c #A67752",
"<. c #A67753",
"1. c #A77753",
"2. c #A67853",
"3. c #A77853",
"4. c #A77954",
"5. c #A87853",
"6. c #A87954",
"7. c #A87A54",
"8. c #A97A54",
"9. c #A87A55",
"0. c #A97A55",
"q. c #A87B55",
"w. c #A97B55",
"e. c #A97C56",
"r. c #AA7C56",
"t. c #AA7D57",
"y. c #AB7D57",
"u. c #AA7E57",
"i. c #AB7E57",
"p. c #AC7E58",
"a. c #AC7F58",
"s. c #AD8059",
"d. c #AD8159",
"f. c #AE815A",
"g. c #AE825A",
"h. c #AF835B",
"j. c #B48158",
"k. c #B0845C",
"l. c #ACA4A3",
/* pixels */
"# # # # # # # # # # # # # # # # # # # # # # # # # # # # # #     ",
"@ @ @ @ @ @ @ @ @ @ @ @ @ @ @ @ @ # @ @ # O # # # # O O O # #   ",
"' L ' ' ' L ' ' ' L ' ' ' L ' ' ' L ' ' ' l ' ' ' j ' ' O # # # ",
"' l ' ' ' l ' ' ' L ' ' ' L ' ' ' L ' ' ' l ' ' ' j ' ' ' O O # ",
"j.j j.l.j.j j.l.j.j j.l.j.j j.l.j.l j.l.j.j j.l.j.j ' ' ' ' # # ",
"# # # # # # # # # # # # # # # # # # # # # # # # # # # # # # # # ",
"# # # # # # # $ # # # # # # # # # # # # # # # # # # # j.' ' # # ",
"i i 6 6 , * % % o Z Z n i w w w w 6 6 6 6 6 e : Z Z # l.' ' # # ",
"Y Y Y Y F Z Z Z : *.] ( Y Y Y T Y F Z Z Z Z Z : (  .# j.' ' # # ",
"*.*.*.7.*.*.5.*.+ i.p.r.*.7.7.7.*.*. . . . . .: 3.3.# j L L # # ",
"+ + + + + + X X . X X X + + + + + + + + + + + + + + # j.' ' # # ",
"i i : ! Y Z B z i i i i i i i i i 6 6 , : B Z B z i # l.' ' # # ",
"F F : 3.*.*.*. .T T T T T T T T Y F F B : $. . .( ! # j.' ' # # ",
" .! : r.p.p.s.s.r.r.r.r.s.s.s.r.*.%.%. .: 7.r.7.3.*.# j l L # # ",
"o o o o o o o o o o o o o o o o o + + + + + + : : : # j.' ' # # ",
"i w 6 6 6 6 6 6 6 ; ; o F B B B B z z i 6 6 6 6 : T # l.' ' # # ",
"T Y Y Y Y Y Y F Z B B o  .( ( ( ( ( ( Y F B B Z : 7.# j.' ' # # ",
"r.7.7.7.*.*.*.*. .] ( X p.7.7.7.7.7.7.*. .] ]  .: p.# j l L # # ",
"+ + + + + + + + + + o . X X X X o o + + + + + + : : # j.' ' # # ",
"Y Y Y Y F B B B r r r r 6 , e i : T Y F Z B B i i i # l.' ' # # ",
"3.&.&.&. .( ( ( Y Y ( ! Y Z B Z : 3.&.&. .( ( ( ( ( # j.' ' # # ",
"k.s.s.p.r.7.7.p.7.7.7.*.$.( ! Y : 7.r.r.7.3.3.3.3.3.# j L L # # ",
": : : : : : : : : : : : : : : : : : : : o + + : : : # j.' ' # # ",
"Z B B i i i : Y F F F Z n i i i i i 6 i + ! T T Y F # l.' ' # # ",
"! ! Y F F Y + 7. . . . .( ! ! ! F Z r z + 7. . . .( # j.' ' # # ",
"s.r.r.7.*. .+ s.s.s.s.p.r.*.*.*.*. .! ! + p.r.r.r.4.# j L L # # ",
": : : : + + X X X o + + : : : : X o + + . X o + + : # j.' ' # # ",
"] Y Y Y Y Y F Z Z Z Z B n i 6 * + ! Y Y Y Y F Z B B # l.' ' # # ",
"7.*. .*.*.*.&.] ( ( ( ( Y Y Z F + p. . . . .! T ( ( # j.' ' # # ",
"s.s.s.s.k.k.s.7.7.7.7.7.*.%.%.*.+ s.s.k.k.s.s.7.7.*.# l L L # # ",
": : : + + + + + + o + + + + + + o + + + + + + + : : # j.' ' # # ",
"Z Z Z B n n n n :  .T T T Y F Z z n z i n i n : ( ( # l.' ' # # "
};
