/* XPM */
static char *_bac2b1ea2164a3bbc1836c0585af9b8Q7fmt8to757WtuK1[] = {
/* columns rows colors chars-per-pixel */
"32 32 11 1 ",
"  c #17111A",
". c #372538",
"X c #753939",
"o c #3E375C",
"O c #FC791A",
"+ c #C44D29",
"@ c #A25948",
"$ c #74A334",
"# c #ADBC3A",
"% c #FFE433",
"& c #FFA070",
/* pixels */
"$$$$$$$$$$$$$$$$$$$$$$$$$$$$$$$$",
"$$#$$$$$$$$$$$$$$$#$$$$$$$$$$$$$",
"$#                            $$",
"$ oooooooooooooooooooooooooooo $",
"$ .oooooooooooooooooooooooooo. $",
"$$ ...                    ... $$",
"$$$ ........................ $$$",
"$$$ ........................ $$$",
"$$ ooooooooooooooooooooooooo. $$",
"$$ ooooooooooooooooooooooooo. $$",
"$$ ooooooooooooooooooooooooo. $$",
"$$ ooooooooooooooooooooooooo. $$",
"$$ ooooooooooo+oooooooooooo.. $$",
"$$$ oo+ooooooo++oooooooo.+.. $$$",
"$$$ oo++oooooo+O+oo+ooo.+O+. #$$",
"$$$$ o+%+oooo+%O+o+%+o..+O+ $$$$",
"$$$$$ o+O+o+o+OOO+%O+..+OO+$$$$$",
"$$#$$$ +O+o++%OOOOO+..+OOO+$$$$$",
"$#$$$$$+OO+OOO  OOOO++OOO+$$$$$$",
"$$$$$$$+OOOO  @@ OOOOOOOO+$$$$$$",
"$$$$$$$$+OO @@..X  OOOOO+$$$$$$$",
"$$$$$$$$+  @.XXXX..  OOO+$$$$$$$",
"$$$$$$$$ @@XXXXX. .@@   $$$$$$$$",
"$$$$$$  @XXXX.... .XX@@@   $$$$$",
"$$$$$ @@XXXX..&&&@..XXXX@@@ $$$$",
"$$$$ @XXXXX..&@@@&@.XXXX... $$$$",
"$$$ @XX@@....&@&&@&...XXXXX. $$$",
"$$$ @X@..... &@@&@&.....XXXX $$$",
"$$$$ @....   @&@@@&  ....... $$$",
"$$$$$ ..  $$# @&&& $$   ... #$$$",
"$$$$$$  $$$$$#    $$$$$$   $$#$$",
"$$$$$$$$$$$$$$$$$$$$$$$$$$$$$$$$"
};
