/* XPM */
static char *_85aa56102a54bfa93a18660b6f6aa5d7h3sb8IMDBTEFQpQ[] = {
/* columns rows colors chars-per-pixel */
"32 32 10 1 ",
"  c None",
". c #FDAE35",
"X c #733D3B",
"o c #422632",
"O c #FEE861",
"+ c #F77622",
"@ c #D77643",
"# c #C28569",
"$ c #EBD4AB",
"% c white",
/* pixels */
"                                ",
"                                ",
"                                ",
"                                ",
"         ...         ...        ",
"       XX...XXXXXXXXX...XX      ",
"       XX...XXXXXXXXX...XX      ",
"       oo.O.ooooooXoo.O.oo      ",
"     ..XXOOOXXXXXXXXXOOOXX..    ",
"     ..XXOOOXXXXXXXXXOOOXX..    ",
"     ..XX...XXXXXXXXX...XX..    ",
"     ..oo...ooXoooooo...oo..    ",
"     ..XX...XXXXXXXXX...XX..    ",
"     ..XX..+XXXXXXXXX+.+XX..    ",
"     ..oo+++XooooXXXo+++oo.O    ",
"     ..oo+++ooooooooo+++oo.O    ",
"     ....................OOO    ",
"     +++++++++++++++++++++++    ",
"      @@ooooooo...ooooooo@@     ",
"     +..oXXXoXX...XXoXXXo..+    ",
"     +..oXXXoXX#O#XXoXXXo..+    ",
"     +..XXXXoXXo+oXXXXXXo..+    ",
"      ..XXXXoX$o$o$XoXXXX..     ",
"      ..oXXXXX$$$$$XoXXXX..     ",
"      ..oXXXoX#####XoXXXo..     ",
"      ..oXXXoX##o##XoXXXo..     ",
"     .........#####........O    ",
"     ...............O.OO.OOO    ",
"     +++++++++++++++++++++++    ",
"                                ",
"                                ",
"                                "
};
