/* XPM */
static char *_ac016c8c65447408737574346494d4a321dgJWm3uDIhljW[] = {
/* columns rows colors chars-per-pixel */
"32 32 143 2 ",
"   c #9E6E4C",
".  c #9F6E4C",
"X  c #81593B",
"o  c #946042",
"O  c #935F42",
"+  c #915E41",
"@  c #936143",
"#  c #946143",
"$  c #966445",
"%  c #986647",
"&  c #9B6A49",
"*  c #9C6B4A",
"=  c #A2714E",
"-  c #956143",
";  c #946043",
":  c #966345",
">  c #976546",
",  c #976446",
"<  c #9A6948",
"1  c #9E6D4C",
"2  c #7D5639",
"3  c #795337",
"4  c #A57752",
"5  c #A97A55",
"6  c #AD8059",
"7  c #AF835B",
"8  c #B0845C",
"9  c #AE825A",
"0  c #A47450",
"q  c #A47350",
"w  c #A67652",
"e  c #A87A54",
"r  c #AE815A",
"t  c #A37350",
"y  c #A1714F",
"u  c #A47451",
"i  c #A57652",
"p  c #9F6F4D",
"a  c #9E6D4B",
"s  c #A1714E",
"d  c #AC7E58",
"f  c #9B6949",
"g  c #A06F4D",
"h  c #A37450",
"j  c #A47551",
"k  c #A97B55",
"l  c #9D6B4A",
"z  c #986646",
"x  c #9D6C4B",
"c  c #88563B",
"v  c #8F5B3F",
"b  c #935F41",
"n  c #976445",
"m  c #996747",
"M  c #A16F4D",
"N  c #956244",
"B  c #755135",
"V  c #724E34",
"C  c #A77954",
"Z  c #A97C56",
"A  c #AA7D57",
"S  c #AC7F58",
"D  c #9D6D4B",
"F  c #A2724F",
"G  c #A67753",
"H  c #AA7C56",
"J  c #A87954",
"K  c #AB7D57",
"L  c #AD8159",
"P  c #A77A53",
"I  c #A97B56",
"U  c #A2734F",
"Y  c #8F5D40",
"T  c #9A6848",
"R  c #A0704D",
"E  c #986546",
"W  c #9C6A49",
"Q  c #905C40",
"!  c #8C593E",
"~  c #925F41",
"^  c #925F42",
"/  c #A67853",
"(  c #A87A55",
")  c #AA7E57",
"_  c #A87B55",
"`  c #9E6C4B",
"'  c #A0704E",
"]  c #A77853",
"[  c #966344",
"{  c #9C6A4A",
"}  c #915C40",
"|  c #905B3F",
" . c #8A583D",
".. c #8D5B3F",
"X. c #8E5C40",
"o. c #905D40",
"O. c #A3714F",
"+. c #A77753",
"@. c #A2704E",
"#. c #A57551",
"$. c #A97A54",
"%. c #AB7E57",
"&. c #9D6A49",
"*. c #8E593E",
"=. c #8C583C",
"-. c #8E5A3E",
";. c #936042",
":. c #996646",
">. c #8B573C",
",. c #8B563C",
"<. c #8C583D",
"1. c #8F5C3F",
"2. c #A1704E",
"3. c #A3724F",
"4. c #956344",
"5. c #8B583D",
"6. c #925E41",
"7. c #A2714F",
"8. c #A87853",
"9. c #A67752",
"0. c #996647",
"q. c #8F5A3E",
"w. c #8F5A3F",
"e. c #8D593D",
"r. c #855339",
"t. c #855239",
"y. c #88553B",
"u. c #8C5A3E",
"i. c #8D5A3E",
"p. c #7E5B3E",
"a. c #8A6445",
"s. c #B48158",
"d. c #ACA4A3",
"f. c #8E6747",
"g. c #8B6546",
"h. c #9E7450",
"j. c #936B4A",
"k. c #8C6546",
"l. c #906948",
"z. c #7C593E",
"x. c #77553A",
"c. c #7B593E",
"v. c white",
/* pixels */
"  . X o O o + @ # @ $ % & * * * = X - o ; # : > > , , $ $ , < 1 ",
"X X 2 2 2 2 2 2 2 3 2 2 2 2 2 2 3 2 2 2 2 2 2 X X X X X X X X X ",
"4 5 5 6 7 8 8 6 9 2 0 q q w e 5 5 e 5 r 8 8 6 6 6 7 X t y u i 4 ",
"p p * a s s s s d 2 % > f & 1 . . . g h j j j s j k X * f l   . ",
": : $ z < f f f x 2 c v b ; : $ $ $ n m f f f f f M X # o N : : ",
"X 2 2 3 B V 2 2 3 B X X X X 2 2 3 B B B 2 2 X X X X X X X X X X ",
"C Z A A S 2 a D F j 4 4 G H S 6 6 6 7 2 F 0 J H K L P P e G C I ",
"p F U U J 2 @ Y $ % x x a p F U U U J 2 T m m & x x x x x a R F ",
"E T W W a 2 Q ! Q ~ ^ ~ ^ # > % % % f X O b O N : $ $ $ $ n % < ",
"X X X 2 2 3 X X X X X X X X X X X X X X X X X X X X X X X X X X ",
"/ / / / / ( A ) _ X & ` . t 4 k k k S k k H S L 6 8 9 X 5 J k / ",
"        . ' h h ] X n [ n f a   & &     . F h h h / H X a { a   ",
"^ ^ ~ N N $ m f l X } |  ...X.X.X.Y [ [ : % f & & f m X O o.~ [ ",
"X X 2 2 2 2 2 2 3 3 B B B B V 3 2 2 2 2 2 2 2 2 2 2 2 X X X X X ",
"d X = M M O.+.k k k k k k d B 1 M @.0 #.#.#.J $.k %.S S S 6 K A ",
"k X $ : : E &   . . . . . ' 3 : : $ m < < < < < < *   . . p s j ",
"&.X *.=.=.-.+ ;.;.: : : : :.3 >.,.<.-.v v v v v 1.+ ^ ;.;.;.N > ",
"X X X 2 2 2 2 2 2 3 3 3 3 3 3 3 3 3 3 3 3 3 3 3 3 3 3 3 3 3 3 2 ",
"i / _ Z ( X 2.q q w H 6 6 6 K K K K L r S S %.X a 3.q w S J i J ",
"x   s s t X : % % T { l l l l l l l s j i i ] X m % % < * l l g ",
"^ @ 4.$ N X 5.-.-.o.6.~ ~ ~ ~ ~ ~ ~ ;.: > f x X b 6.b # N N N :.",
"2 2 2 2 2 2 2 2 2 2 2 2 2 2 B B B V B B 2 2 2 2 2 2 2 2 2 2 X X ",
"/ / X 7.' 2.R F j i e e e G H d %.2 #.8.0 9.J i i i i i 4 i 4 H ",
"' p X > n n n , m f & & & & 1 g t X , n n 0.f & & & & & & & { p ",
"> n X | q.q.w.e.v 1.1.1.1.Q - , n 3 r.t.y.5.u.i.o.o.o.o.o.; # , ",
"p.p.p.p.p.p.p.p.p.p.p.p.p.p.p.p.p.p.p.p.p.p.p.p.p.p.p.p.p.p.p.p.",
"p.p.p.p.p.p.p.p.p.p.p.p.p.p.p.p.p.p.p.p.p.p.p.p.p.p.p.p.p.p.p.p.",
"a.s.d.s.a.s.d.s.f.s.d.s.g.s.d.s.g.s.d.s.g.s.d.s.g.s.d.s.g.s.d.s.",
"a.h.h.h.f.h.h.h.j.h.h.h.j.h.h.h.j.h.h.h.f.h.h.h.f.h.h.h.j.h.h.h.",
"a.h.h.h.k.h.h.h.l.h.h.h.j.h.h.h.j.h.h.h.j.h.h.h.j.h.h.h.j.h.h.h.",
"z.z.z.z.x.z.c.c.c.c.c.c.c.c.c.c.c.c.c.c.c.c.c.c.c.c.c.c.c.c.c.z.",
"z.z.z.z.z.z.z.z.z.z.z.z.z.z.z.z.z.z.z.z.z.z.z.z.z.z.z.z.z.z.z.z."
};
