/* XPM */
static char *_10218aa363f4ea9c54defb5301fb470vheCF7WHeke2uDRK[] = {
/* columns rows colors chars-per-pixel */
"32 32 141 2 ",
"   c #7C593E",
".  c #9E7450",
"X  c #ACA4A3",
"o  c #7E5B3E",
"O  c #966345",
"+  c #966445",
"@  c #986646",
"#  c #9A6948",
"$  c #9B6949",
"%  c #9D6C4B",
"&  c #7D5639",
"*  c #88563B",
"=  c #8F5B3F",
"-  c #935F41",
";  c #946043",
":  c #976445",
">  c #996747",
",  c #A16F4D",
"<  c #B48158",
"1  c #81593B",
"2  c #795337",
"3  c #755135",
"4  c #724E34",
"5  c #936B4A",
"6  c #8B6546",
"7  c #A77954",
"8  c #A97C56",
"9  c #AA7D57",
"0  c #AC7F58",
"q  c #9E6D4B",
"w  c #9D6D4B",
"e  c #A2724F",
"r  c #A47551",
"t  c #A57752",
"y  c #A67753",
"u  c #AA7C56",
"i  c #AD8059",
"p  c #AF835B",
"a  c #A47450",
"s  c #A87954",
"d  c #AB7D57",
"f  c #AD8159",
"g  c #9F6F4D",
"h  c #A2734F",
"j  c #936143",
"k  c #8F5D40",
"l  c #986647",
"z  c #9A6848",
"x  c #9B6A49",
"c  c #986546",
"v  c #9C6A49",
"b  c #905C40",
"n  c #8C593E",
"m  c #925F41",
"M  c #925F42",
"N  c #946143",
"B  c #976546",
"V  c #935F42",
"C  c #956244",
"Z  c #A67853",
"A  c #A87A55",
"S  c #AA7E57",
"D  c #A87B55",
"F  c #9E6C4B",
"G  c #9F6E4C",
"H  c #A37350",
"J  c #A97B55",
"K  c #B0845C",
"L  c #9E6E4C",
"P  c #A0704E",
"I  c #A37450",
"U  c #A77853",
"Y  c #966344",
"T  c #9D6B4A",
"R  c #915C40",
"E  c #905B3F",
"W  c #8A583D",
"Q  c #8D5B3F",
"!  c #8E5C40",
"~  c #8E6747",
"^  c #AC7E58",
"/  c #A2714E",
"(  c #A3714F",
")  c #A77753",
"_  c #9E6D4C",
"`  c #A2704E",
"'  c #A57551",
"]  c #A97A54",
"[  c #AB7E57",
"{  c #9C6B4A",
"}  c #9D6A49",
"|  c #8E593E",
" . c #8C583C",
".. c #8E5A3E",
"X. c #915E41",
"o. c #936042",
"O. c #996646",
"+. c #8B573C",
"@. c #8B563C",
"#. c #8C583D",
"$. c #8F5C3F",
"%. c #A57652",
"&. c #A1704E",
"*. c #A47350",
"=. c #A67652",
"-. c #AE815A",
";. c #A3724F",
":. c #A1714E",
">. c #9C6A4A",
",. c #956344",
"<. c #8B583D",
"1. c #905D40",
"2. c #925E41",
"3. c #A2714F",
"4. c #A0704D",
"5. c #A87A54",
"6. c #A87853",
"7. c #A67752",
"8. c #976446",
"9. c #A06F4D",
"0. c #996647",
"q. c #8F5A3E",
"w. c #8F5A3F",
"e. c #8D593D",
"r. c #956143",
"t. c #855339",
"y. c #855239",
"u. c #88553B",
"i. c #8C5A3E",
"p. c #8D5A3E",
"a. c #8A6445",
"s. c #AD825A",
"d. c #B0855C",
"f. c #A57651",
"g. c #AA7D56",
"h. c #915D40",
"j. c #A47451",
"k. c #AE825A",
"l. c #946042",
"z. c #A97A55",
"x. c white",
/* pixels */
"    . . X o O O + @ # $ $ $ % & * = - ; O + + + : > $ $ $ $ $ , ",
"    . . < o 1 & & 2 3 4 & & 2 3 1 1 1 1 & & 2 3 3 3 & & 1 1 1 1 ",
"    5 5 6 o 7 8 9 9 0 & q w e r t t y u 0 i i i p & e a s u d f ",
"    . . < o g e h h s & j k + l % % q g e h h h s & z > > x % % ",
"    . . X o c z v v q & b n b m M m M N B l l l $ 1 V - V C O + ",
"    . . < o 1 1 1 & & 2 1 1 1 1 1 1 1 1 1 1 1 1 1 1 1 1 1 1 1 1 ",
"    5 5 6 o Z Z Z Z Z A 9 S D 1 x F G H t J J J 0 J J u 0 f i K ",
"    . . < o L L L L G P I I U 1 : Y : $ q L x x L L G e I I I Z ",
"    . . X o M M m C C + > $ T 1 R E W Q ! ! ! k Y Y O l $ x x $ ",
"    . . < o 1 1 & & & & & & 2 2 3 3 3 3 4 2 & & & & & & & & & & ",
"    5 ~ 6 o ^ 1 / , , ( ) J J J J J J ^ 3 _ , ` a ' ' ' s ] J [ ",
"    . . < o J 1 + O O c x L G G G G G P 2 O O + > # # # # # # { ",
"    . . X o } 1 |  . ...X.o.o.O O O O O.2 +.@.#...= = = = = $.X.",
"    . . < o 1 1 1 & & & & & & 2 2 2 2 2 2 2 2 2 2 2 2 2 2 2 2 2 ",
"    5 ~ 6 o %.Z D 8 A 1 &.*.*.=.u i i i d d d d f -.0 0 [ 1 q ;.",
"    . . < o % L :.:.H 1 O l l z >.T T T T T T T :.r %.%.U 1 > l ",
"    . . X o M j ,.+ C 1 <.....1.2.m m m m m m m o.O B $ % 1 - 2.",
"    . . < o & & & & & & & & & & & & & & 3 3 3 4 3 3 & & & & & & ",
"    5 5 6 o Z Z 1 3.P &.4.e r %.5.5.5.y u ^ [ & ' 6.a 7.s %.%.%.",
"    . . < o P g 1 B : : : 8.> $ x x x x _ 9.H 1 8.: : 0.$ x x x ",
"    . . X o B : 1 E q.q.w.e.= $.$.$.$.b r.8.: 2 t.y.u.<.i.p.1.1.",
"    . . < o & & & & & & & & & & & & & & & & & & & & & & & & & & ",
"    a.a.a.o Z 7 8 S 0 s.d.1 H a :.:.:.:.H t y y Z D 9 9 9 9 9 8 ",
"    . . < o _ 4.H I f.7 g.1 $ > > > > > $ % q q g h H H H H H h ",
"    . . X o r.O > z x q P & - h.p.e.e.p.$.1.N N C c 0.> z z > > ",
"    . . < o 1 1 1 1 1 1 1 2 & & & & & & & 2 2 2 2 2 & & & & 1 1 ",
"    ~ ~ a.o u J 1 j.H H %.7 7 7 7 d i k.k.k.f 1 I H =.7.s u u u ",
"    . . < o J 7 1 % >.>.% g P P P e %.%.%.%.d 1 % >.>.{ % 9.P P ",
"    . . X o L G 1 l.V l.X.j N j + l x { { { / 1 r.l.; N O B B 8.",
"    . . < o 1 1 & & & & & & & 2 & & & & & & 2 & & & & & & 1 1 1 ",
"    5 5 ~ o t z.z.i p K K i k.& a *.*.=.5.z.z.5.z.-.K K i i i p ",
"    . . < o g g { q :.:.:.:.^ & l B $ x _ G G G 9.I r r r :.r J "
};
