/* XPM */
static char *_3708ed6f9cf47a2cd693d785a92c173EaqU1CO9QPK9wHqB[] = {
/* columns rows colors chars-per-pixel */
"32 32 53 1 ",
"  c black",
". c #252E10",
"X c #243310",
"o c #2E3314",
"O c #353819",
"+ c #382020",
"@ c #50351D",
"# c #583028",
"$ c #2D5414",
"% c #315918",
"& c #365919",
"* c #6E5217",
"= c #40651E",
"- c #66412D",
"; c #7B512C",
": c #6C4E36",
"> c #715135",
", c #4C7922",
"< c gray25",
"1 c #644C4C",
"2 c gray50",
"3 c #8F6722",
"4 c #8B7321",
"5 c #A47B21",
"6 c #865640",
"7 c #866B43",
"8 c #CC6161",
"9 c #549F26",
"0 c #ADBC3A",
"q c #74A334",
"w c #9D835F",
"e c #A08E77",
"r c #AC9978",
"t c #D89C6D",
"y c #CDA868",
"u c #D8B270",
"i c #918B86",
"p c #A38C89",
"a c #A3988F",
"s c #B9AA8F",
"d c #B6BEB1",
"f c #FF918F",
"g c #C8A9A7",
"h c #C4B4A6",
"j c #D3B2A6",
"k c #C5BCB1",
"l c #FFADAB",
"z c #E5B0B0",
"x c #E5C387",
"c c #FFC4C7",
"v c #FFC8C7",
"b c #E3DBDC",
"n c #FFE1E3",
/* pixels */
"qqqqqqqqqqqqqqqqqqqqqqqqqqqqqqqq",
"qq0qqqqqqqqqqqqqqq0qqqqqqqqqqqqq",
"q0qqqqqqqqqqqqqqq0qqqqqqqqqqqqqq",
"qqqqqqqqqqqqqqqqqqqqqqqqqqqqqqqq",
"qqqqqqqqqqqqq      qqqqqqqqqqqqq",
"qqqqqqqqqqq  888888  qqqqqqqqqqq",
"qqqqqqqqqq 8fffccfff8 qqqqqqqqqq",
"qqqqqqqqq 8ffffccffff8 qqqqqqqqq",
"qqqqqqqq 8  fffccfff  8 qqqqqqqq",
"qqqqqqqq  ff        ff  qqqqqqqq",
"qqqqqqqq fffffccccfffff qqqqqqqq",
"qqqqqqq fff fnnnnncf fff qqqqqqq",
"qqqqqqq ff lawwwwwalf ff qqqqqqq",
"qqqqqqq   <exuruuusel    qqq0qqq",
"qqqqqqq 8 v7ut:uyy:6vf 8 qqqq0qq",
"qqqqqqq f h=%%%X%%%=df f qqqqqqq",
"qqqqqqq f v$9,O#o9&.bf f qqqqqqq",
"qq0qqqq f j343333433kf f qqqqqqq",
"q0qqqqq f j*;55;;;;*jf f qqqqqqq",
"qqqqqqq f fg>-@>>>>gff f qqqqqqq",
"qqqqqqqq 8 fvipzzi2ff 8 qqqqqqqq",
"qqqqqqqq 88 ffffffff 88 qqqqqqqq",
"qqqqqqqq 8f8        8f8 qqqqqqqq",
"qqqqqqqqq 8f88888888f8 qqqqqqqqq",
"qqqqqqqqq 8ffffffffff8 qqqqqqqqq",
"qqqqqqqqq 8fff8888fff8 qqqqqqqqq",
"qqqqqqqqqq 888    888 qqqqqqqqqq",
"qqqqqqqqqq +1+ qq +1+ qqqqqqqqqq",
"qqqqqqqqqqq   qqqq   qqqqqqqqqqq",
"qqqqqqqqqqqq0qqqqqqqqqqqqqqq0qqq",
"qqqqqqqqqqqqq0qqqqqqqqqqqqqqq0qq",
"qqqqqqqqqqqqqqqqqqqqqqqqqqqqqqqq"
};
