/* XPM */
static char *_87cfe39e73a4641d6fdc2cf43a2a2b9RK1s0VfMLoNGqbVO[] = {
/* columns rows colors chars-per-pixel */
"32 32 82 1 ",
"  c black",
". c gray8",
"X c #17111A",
"o c #382020",
"O c #372538",
"+ c #382738",
"@ c #471A14",
"# c #584E35",
"$ c #61573B",
"% c #3E375C",
"& c #4C3A42",
"* c #453D5D",
"= c #564347",
"- c #644C4C",
"; c #4A4260",
": c #534A61",
"> c #8A745F",
", c #CC6161",
"< c #ADBC3A",
"1 c #74A334",
"2 c #B1BE41",
"3 c #988661",
"4 c #998366",
"5 c #A39067",
"6 c #AB936F",
"7 c #B29E6D",
"8 c #B49D74",
"9 c #BCAB7E",
"0 c #C1AC75",
"q c #CBB57B",
"w c #CFB77C",
"e c #C5C35D",
"r c #C9C462",
"t c #DAC87B",
"y c #DBC97E",
"u c #DCCA7F",
"i c #FF918F",
"p c #CFBA81",
"a c #D5BE81",
"s c #C8BB9A",
"d c #F0B38C",
"f c #C7B8BA",
"g c #D7C087",
"h c #DAC285",
"j c #DBC485",
"k c #DFC687",
"l c #D9C882",
"z c #DECA81",
"x c #DBC388",
"c c #D0C096",
"v c #D3C399",
"b c #E1C887",
"n c #E3CA89",
"m c #E5CC8B",
"M c #E9CB93",
"N c #EBCA98",
"B c #EECA9F",
"V c #E8D29A",
"C c #CEC3A7",
"Z c #CDC3A9",
"A c #F0C9A5",
"S c #ECDAA9",
"D c #FAC5BC",
"F c #EEDDB2",
"G c #EDDEB8",
"H c #FDC5C3",
"J c #FFC4C7",
"K c #E2DECE",
"L c #F1E4C3",
"P c #E6E2D8",
"I c #EBE7DE",
"U c #F3EDDE",
"Y c #EBE9E2",
"T c #F3EFE1",
"R c #F2EEE6",
"E c #F8F3E5",
"W c #F3F0E9",
"Q c #F3F2EC",
"! c #F7F6EF",
"~ c #F9F5ED",
"^ c #FCFCFB",
"/ c #FDFDFD",
/* pixels */
"11111111111111111111111111111111",
"11<111111111111111<1111111111111",
"1<11111ezzzzzzzzzlzzzzztr1111111",
"111111ymmmmmSSmLmFVmmmmmmu211111",
"111XX5mmmmmm~/n/E//Gmmmmmm3XX111",
"11X%%xmmmmmbR/T^/7K!bmmmmmn*%X11",
"11X%;mmmmmmbRY/^/pUQkmmmmmm:%X11",
"11XOOgmmmmmbWRP/I^^Ckmmmmmm+OX11",
"111XO4mmmmmbvc0Zws9qbmmmmm>OX111",
"111XO+6mmmmmjjkabjhbmmmmm8+OX111",
"11X%%%+=#dddddANmNddddd$&+%%%X11",
"11X%%%% iii iJJBMJJi iii %%%%X11",
"1X%%%%% ii iiJHDJJJii ii %%%%%X1",
"1X%%%%%    iiJJJJJJii    %%%%%X1",
"1X%%%%% , iiiiJJJJiiii , %%%%%X1",
"1X%%%%% i ifffiJJifffi i %%%%%X1",
"1X%%%%% i if.fiJJif.fi i %%%%OX1",
"11X%%%% i ifffiJJifffi i %%OOX11",
"1<X%%%% i iiii ,, iiii i %OOOX11",
"111X%%% i iii ,ii, iii i OOOX111",
"111X%%%% , ii @,,@ ii , OOOOX111",
"1111X%%% ,, iiiiiiii ,, OOOX1111",
"11111XOO ,i,        ,i, OOX11111",
"111111XO% ,i,,,,,,,,i, OOX111111",
"111111XOO ,iiiiiiiiii, OOX111111",
"111111XOO ,iii,,,,iii, OOX111111",
"11111XOOOX ,,,    ,,, XOOOX11111",
"11111XOOX1 o-o XX o-o 1XOOX11111",
"11111XOOX11   1111   11XOOX11111",
"111111XX1111<11111111111XX11<111",
"1111111111111<111111111111111<11",
"11111111111111111111111111111111"
};
