/* XPM */
static char *a191a91ce2554052eb644d28f49d27b1RYJLYrwsPB0JULYf[] = {
/* columns rows colors chars-per-pixel */
"32 32 21 1 ",
"  c black",
". c #24110E",
"X c #24180D",
"o c #352516",
"O c #4D390C",
"+ c #4A261F",
"@ c #473220",
"# c #663931",
"$ c #13410A",
"% c #A96A4D",
"& c #2E8E1B",
"- c #74A334",
"= c #6ABE30",
"* c #ADBC3A",
"; c #FBBD36",
": c #AC8A50",
"> c #BE8B5D",
", c #D8876A",
"< c #D8B270",
"1 c #F3D49E",
"2 c white",
/* pixels */
"--------------------------------",
"--*---------------*-------------",
"-*---------------*--------------",
"--------------------------------",
"--------------------------------",
"--------------------------------",
"--------------------------------",
"----------2222222222------------",
"--------22@@@@@@@@@@22----------",
"-------2@@1111111111@@2---------",
"------2@11<<<<<<<<<<11@2--------",
"-----2@1<<<< 2<<<<<< 21@2-------",
"-----2o<<<<,  <<<::<  ,o2-------",
"-----2o<<<<,,<<<<<<<<,,o2---*---",
"-----2oooooooooooooooooo2----*--",
"----2$=&&&&&&&$$&&&&&&&=$2------",
"-----2$=====$$++$$===$$$2-------",
"--*--2.$$=$++###++$=$++.2-------",
"-*---2...$.........$....2-------",
"----2O;;;;;;;;;;;;;;;;;;O2------",
"----2O;OOO;;;OOOOOOOOOO;O2------",
"-----2OX%%OO;O%%%%%%%%XO2-------",
"------2X>>%%O%>>>>>>>>X2--------",
"-------2XXXXXXXXXXXXXX2---------",
"--------22XX222222XX22----------",
"----------22------22------------",
"--------------------------------",
"--------------------------------",
"--------------------------------",
"------------*---------------*---",
"-------------*---------------*--",
"--------------------------------"
};
