/* XPM */
static char *result[] = {
/* columns rows colors chars-per-pixel */
"32 32 17 1 ",
"  c #17111A",
". c #372538",
"X c #753939",
"o c #3E375C",
"O c #BF4830",
"+ c #FC791A",
"@ c #C44D29",
"# c #F77622",
"$ c #A25948",
"% c #D77643",
"& c #ADBC3A",
"* c #74A334",
"= c #FEAE34",
"- c #C28569",
"; c #FFA070",
": c #E8B796",
"> c #EBD4AB",
/* pixels */
"********************************",
"**&***************&*************",
"*&                            **",
"* oooooooooooooooooooooooooooo *",
"* .oooooooooooooooooooooooooo. *",
"** ...                    ... **",
"*** ...............>>..>>... ***",
"*** ...............>::.>>>:. ***",
"** ooooooooooooooo>::-o>:::o. **",
"** ooooooooooooo>>>-oo>::--o. **",
"** ooooooooo####:>-o#>::oooo. **",
"** ooooooo######OO####:ooooo. **",
"** oooooo####%OO###O##Ooooo.. **",
"*** oo@o###%OOO##=%##%OO.@.. ***",
"*** oo@##%%OOO#=O%%#%#OO@+@. &**",
"**** o@#%%OOO###%%O%%OOO@+@ ****",
"***** ##%O===O##=#O%#OO@++@*****",
"**&**O##O=###=O##%%%%OOO++@*****",
"*&**#O#%=##%###OO%%%%%OOO@******",
"***#OO#O=%%%%#%%OO%%%%OOOO******",
"***#OO#O%%%%O%%%#%O%%%%OOO******",
"***%OO#OO#%%%OOOO%%O%%%OOO******",
"****%O##O%%%%OOOOOOO%%OOO*******",
"******O%OO%%%%OOOOOOOOOO   *****",
"***** $$XXXX..;;;$..XXXX$$$ ****",
"**** $XXXXX..;$$$;$.XXXX... ****",
"*** $XX$$....;$;;$;...XXXXX. ***",
"*** $X$..... ;$$;$;.....XXXX ***",
"**** $....   $;$$$;  ....... ***",
"***** ..  **& $;;; **   ... &***",
"******  *****&    ******   **&**",
"********************************"
};
