/* XPM */
static char *result[] = {
/* columns rows colors chars-per-pixel */
"32 32 15 1 ",
"  c #17111A",
". c #372538",
"X c #753939",
"o c #3E375C",
"O c #FC791A",
"+ c #C44D29",
"@ c #A25948",
"# c #EA6262",
"$ c #ADBC3A",
"% c #74A334",
"& c #FFE433",
"* c #F48D6D",
"= c #FFA070",
"- c #FFB879",
"; c #FCEF8D",
/* pixels */
"%%%%%%%%%%%%%%%%%%%%%%%%%%%%%%%%",
"%%$%%%%%%%%%%%%%%%$%%%%%%%%%%%%%",
"%$                            %%",
"% oooooooooooooooooooooooooooo %",
"% .oooooooooo*ooooooooooooooo. %",
"%% ...                    ... %%",
"%%% ............#.......#... %%%",
"%%% ....#....#..#.#......... %%%",
"%% ooooo#oooo#o##o#ooooooooo. %%",
"%% ooooo#ooo##o#*o*#o#oooooo. %%",
"%% ooooo#o#o#*##-#**o##oo#oo. %%",
"%% ooooooo##*-##-#*-#*#ooooo. %%",
"%% oooooo#*#*-#*-#*-#*#oooo.. %%",
"%%% oo+oo#**----**---*##.+.. %%%",
"%%% oo++##**-;--**---**#+O+. $%%",
"%%%% o+&#**-;;-**--*--**#O+ %%%%",
"%%%%% o+#*-;;;--*--*;--*#O+%%%%%",
"%%$%%% ##*-;;;;--*--;--*##+%%%%%",
"%$%%%%%#**--;;;;----;;--*#%%%%%%",
"%%%%%%%#***--;--;--;;;--*#%%%%%%",
"%%%%%%%##*--;---*--;;;-*##%%%%%%",
"%%%%%%%%#**-;;-*---;;--*#%%%%%%%",
"%%%%%%%%##*-;----*---*-##%%%%%%%",
"%%%%%%  @#**----***-***#   %%%%%",
"%%%%% @@X##**--**-****##@@@ %%%%",
"%%%% @XXXX#***********#X... %%%%",
"%%% @XX@@....=@==@=...XXXXX. %%%",
"%%% @X@..... =@@=@=.....XXXX %%%",
"%%%% @....   @=@@@=  ....... %%%",
"%%%%% ..  %%$ @=== %%   ... $%%%",
"%%%%%%  %%%%%$    %%%%%%   %%$%%",
"%%%%%%%%%%%%%%%%%%%%%%%%%%%%%%%%"
};
