/* XPM */
static char *result[] = {
/* columns rows colors chars-per-pixel */
"32 32 15 1 ",
"  c #17111A",
". c #372538",
"X c #753939",
"o c #3E375C",
"O c #FC791A",
"+ c #C44D29",
"@ c #A25948",
"# c #EA6262",
"$ c #ADBC3A",
"% c #74A334",
"& c #FFE433",
"* c #F48D6D",
"= c #FFA070",
"- c #FFB879",
"; c #FCEF8D",
/* pixels */
"%%%%%%%%%%%%%%%%%%%%%%%%%%%%%%%%",
"%%$%%%%%%%%%%%%%%%$%%%%%%%%%%%%%",
"%$                            %%",
"% oooooooooooooooooooooooooooo %",
"% .oooooooooooooooooooooooooo. %",
"%% ...          #         ... %%",
"%%% ....#.....#.#.#......... %%%",
"%%% ....#.....*.#.#......... %%%",
"%% oooooooooo#*o#o#oo#oooooo. %%",
"%% ooooooo#oo#*#*o##o*oooooo. %%",
"%% ooooooo#o##*#*#*#o*#ooooo. %%",
"%% ooooooo###*-#*#*-#*#o#ooo. %%",
"%% oooooo#*#**-*-#*-#-#o#oo.. %%",
"%%% oo+oo#-**;-*-**-*-*#*+.. %%%",
"%%% oo++o#-*-;;*-*----***O+. $%%",
"%%%% o+&#*---;-**--;---*#O+ %%%%",
"%%%%% #+#**----**--;;--*##+%%%%%",
"%%$%%% +#**----**-;;;;--*#+%%%%%",
"%$%%%%%#***-;---*--;;---*#%%%%%%",
"%%%%%%%#**--;;--*---;---*#%%%%%%",
"%%%%%%%##*-;;;;-*------**#%%%%%%",
"%%%%%%%%#*-;;;;-*-*----*##%%%%%%",
"%%%%%%%%##*-;;--***---**#%%%%%%%",
"%%%%%%  @#**----****-**##  %%%%%",
"%%%%% @@X##***********##@@@ %%%%",
"%%%% @XXXX#***********#X... %%%%",
"%%% @XX@@....=@==@=...XXXXX. %%%",
"%%% @X@..... =@@=@=.....XXXX %%%",
"%%%% @....   @=@@@=  ....... %%%",
"%%%%% ..  %%$ @=== %%   ... $%%%",
"%%%%%%  %%%%%$    %%%%%%   %%$%%",
"%%%%%%%%%%%%%%%%%%%%%%%%%%%%%%%%"
};
