/* XPM */
static char *result[] = {
/* columns rows colors chars-per-pixel */
"32 32 14 1 ",
"  c #17111A",
". c #372538",
"X c #753939",
"o c #3E375C",
"O c #C44D29",
"+ c #A25948",
"@ c #EA6262",
"# c #ADBC3A",
"$ c #74A334",
"% c #FFE433",
"& c #F48D6D",
"* c #FFA070",
"= c #FFB879",
"- c #FCEF8D",
/* pixels */
"$$$$$$$$$$$$$$$$$$$$$$$$$$$$$$$$",
"$$#$$$$$$$$$$$$$$$#$$$$$$$$$$$$$",
"$#                            $$",
"$ oooooooooooooo@ooooooooooooo $",
"$ .oooooooooooooooooooooooooo. $",
"$$ ...        @           ... $$",
"$$$ .........@....@......... $$$",
"$$$ ........@@..@.@.....@... $$$",
"$$ ooooooooo&@oo@o@ooooo@ooo. $$",
"$$ ooooooooo&@&o&o&&o@oooooo. $$",
"$$ oooo@o@o@&@&@&o&=@@oo@ooo. $$",
"$$ ooo@oo@o&=@&@&@&=&@oo@ooo. $$",
"$$ ooo@o@@o&=&=&&&=-&@o@@oo.. $$",
"$$$ ooOo@&@&=&=&&&===&@&@O.. $$$",
"$$$ oo@O@&@&===&=&===&@&@@O. #$$",
"$$$$ o@%@=&======&===&=&@@O $$$$",
"$$$$$ @&@===--==&======&&@O$$$$$",
"$$#$$$@&&==----=&=======&@O$$$$$",
"$#$$$$@&&&=---==&==-====&@$$$$$$",
"$$$$$$@@&&==--=====-====&@$$$$$$",
"$$$$$$$@&&===-=====--==&@@$$$$$$",
"$$$$$$$@@&&====-==---=&&@$$$$$$$",
"$$$$$$$$@&&===--==---=&@@$$$$$$$",
"$$$$$$  @@&&==-====-=&&@   $$$$$",
"$$$$$ ++X@@&=&==&&==&&@@+++ $$$$",
"$$$$ +XXXX@&&&&&&&&&&&@X... $$$$",
"$$$ +XX++....*+**+*...XXXXX. $$$",
"$$$ +X+..... *++*+*.....XXXX $$$",
"$$$$ +....   +*+++*  ....... $$$",
"$$$$$ ..  $$# +*** $$   ... #$$$",
"$$$$$$  $$$$$#    $$$$$$   $$#$$",
"$$$$$$$$$$$$$$$$$$$$$$$$$$$$$$$$"
};
