/* XPM */
static char *result[] = {
/* columns rows colors chars-per-pixel */
"32 32 14 1 ",
"  c #17111A",
". c #372538",
"X c #753939",
"o c #3E375C",
"O c #FC791A",
"+ c #C44D29",
"@ c #A25948",
"# c #EA6262",
"$ c #ADBC3A",
"% c #74A334",
"& c #F48D6D",
"* c #FFA070",
"= c #FFB879",
"- c #FCEF8D",
/* pixels */
"%%%%%%%%%%%%%%%%%%%%%%%%%%%%%%%%",
"%%$%%%%%%%%%%%%%%%$%%%%%%%%%%%%%",
"%$                            %%",
"% oooooooooooooooooooooooooooo %",
"% .ooooooooooooo#o#oooooooooo. %",
"%% ...                    ... %%",
"%%% ..........#.....#....... %%%",
"%%% .........#&.#........... %%%",
"%% ooooooo#oo#&o#ooo#ooooooo. %%",
"%% ooooooo#o##&##ooo#ooooooo. %%",
"%% oooooo##o#&&#&#o##ooooooo. %%",
"%% ooooo##oo#&=#&#o#&#oo#ooo. %%",
"%% ooooo#&o&&&=#&&o=&#oo#oo.. %%",
"%%% oo+##&#=&==&&&#==#o##+.. %%%",
"%%% oo+##&#&&==&&&&-=&##&O+. $%%",
"%%%% o+##&&&-===&&=--&&#&#+ %%%%",
"%%%%% o#&&&=-===&&==-=&#&#+%%%%%",
"%%$%%%##&&&=--==&===-==&&#+%%%%%",
"%$%%%%##&&==---========&&#%%%%%%",
"%%%%%%##&&==---==-======&#%%%%%%",
"%%%%%%##&&===---======&=&#%%%%%%",
"%%%%%%%#&&===---===&=&=&##%%%%%%",
"%%%%%%%%#&&===-====&&==&#%%%%%%%",
"%%%%%%  ##&&======&&&=&&#  %%%%%",
"%%%%% @@X#&&&&==&&&&&&&#@@@ %%%%",
"%%%% @XXXX#&&&&&&&&&&&#X... %%%%",
"%%% @XX@@....*@**@*...XXXXX. %%%",
"%%% @X@..... *@@*@*.....XXXX %%%",
"%%%% @....   @*@@@*  ....... %%%",
"%%%%% ..  %%$ @*** %%   ... $%%%",
"%%%%%%  %%%%%$    %%%%%%   %%$%%",
"%%%%%%%%%%%%%%%%%%%%%%%%%%%%%%%%"
};
