/* XPM */
static char *f6c6d96bfe074543f43c4d9f939a6570oehvsJ66IhXDmKtf[] = {
/* columns rows colors chars-per-pixel */
"32 32 129 2 ",
"   c None",
".  c #724E34",
"X  c #755135",
"o  c #795337",
"O  c #77553A",
"+  c #7D5639",
"@  c #7B593E",
"#  c #7C593E",
"$  c #7E5B3E",
"%  c #855239",
"&  c #855339",
"*  c #88553B",
"=  c #88563B",
"-  c #8B563C",
";  c #8B573C",
":  c #81593B",
">  c #8A583D",
",  c #8B583D",
"<  c #8C583D",
"1  c #8D593D",
"2  c #8C593E",
"3  c #8C5A3E",
"4  c #8D5A3E",
"5  c #8D5B3F",
"6  c #8E5A3E",
"7  c #8F5A3F",
"8  c #8F5B3F",
"9  c #8F5C3F",
"0  c #905B3F",
"q  c #8E5C40",
"w  c #8F5D40",
"e  c #905C40",
"r  c #915C40",
"t  c #905D40",
"y  c #915E41",
"u  c #925E41",
"i  c #925F41",
"p  c #935F41",
"a  c #925F42",
"s  c #935F42",
"d  c #8B6546",
"f  c #8E6747",
"g  c #936042",
"h  c #936143",
"j  c #946042",
"k  c #946043",
"l  c #946143",
"z  c #956143",
"x  c #956244",
"c  c #966344",
"v  c #966345",
"b  c #966445",
"n  c #976445",
"m  c #976446",
"M  c #976546",
"N  c #996646",
"B  c #986647",
"V  c #996647",
"C  c #996747",
"Z  c #906948",
"A  c #936B4A",
"S  c #9A6848",
"D  c #9A6948",
"F  c #9B6949",
"G  c #9B6A49",
"H  c #9C6A4A",
"J  c #9C6B4A",
"K  c #9D6B4A",
"L  c #9D6C4B",
"P  c #9D6D4B",
"I  c #9E6C4B",
"U  c #9E6D4B",
"Y  c #9E6D4C",
"T  c #9E6E4C",
"R  c #9F6E4C",
"E  c #9F6F4D",
"W  c #9E7450",
"Q  c #A06F4D",
"!  c #A16F4D",
"~  c #A0704D",
"^  c #A0704E",
"/  c #A1704E",
"(  c #A1714E",
")  c #A1714F",
"_  c #A2704E",
"`  c #A2714E",
"'  c #A2724F",
"]  c #A3724F",
"[  c #A2734F",
"{  c #A37350",
"}  c #A47350",
"|  c #A37450",
" . c #A47450",
".. c #A47451",
"X. c #A47551",
"o. c #A57551",
"O. c #A57652",
"+. c #A57752",
"@. c #A67652",
"#. c #A67752",
"$. c #A67753",
"%. c #A77753",
"&. c #A67853",
"*. c #A77853",
"=. c #A77A53",
"-. c #A77954",
";. c #A87853",
":. c #A87954",
">. c #A87A54",
",. c #A97A54",
"<. c #A97A55",
"1. c #A87B55",
"2. c #A97B55",
"3. c #A97B56",
"4. c #AA7C56",
"5. c #AA7D57",
"6. c #AB7D57",
"7. c #AA7E57",
"8. c #AB7E57",
"9. c #AC7E58",
"0. c #AC7F58",
"q. c #AD8059",
"w. c #AD8159",
"e. c #AE815A",
"r. c #AE825A",
"t. c #AF835B",
"y. c #B48158",
"u. c #B0845C",
"i. c #ACA4A3",
/* pixels */
"    # # # # # # # # # # # # # # # # # # # # # # # # # # # # # # ",
"  # # O O O # @ @ @ @ @ @ @ @ @ @ @ @ @ @ @ @ @ @ @ @ @ # # @ @ ",
"# # # O W W W W W A W W W A W W W A W W W A W W W A W W W A W W ",
"# O O W W W W W W A W W W f W W W f W W W A W W W A W W W A W W ",
"# # W W W W y.i.y.d y.i.y.d y.i.y.f y.i.y.d y.i.y.d y.i.y.f y.i.",
"# # # # # # # # # # # # # # # # # # # # # # # # # # # # # # # # ",
"# # W W y.# # # # $ # # # # # # # # $ # # # # # # # # # # # # $ ",
"# # W W i.# m l l t t t t t 3 3 > = & & o m m l t 9 9 9 9 3 3 3 ",
"# # W W y.# E G G G G G G G G G B m m m : { Q E G G G G G B m m ",
"# # A A d # 8.#.#.&.#.#.#.#.#.:.#.#.;.#.+ 8.0.8.#.:.:.:.#.#.] ] ",
"# # W W y.# : : + + + + + + + + + + X X . X X X + + + + + + + + ",
"# # W W i.# B x x x l t t t : L G m x g t t t t t t t t t 3 3 > ",
"# # W W y.# Q G G G G B B B : &.#.#.#.] G G G G G G G G G B B x ",
"# # A f d # :.#.:.0.#.} ] L : 8.0.0.q.q.8.8.8.8.q.q.q.8.#.} } ] ",
"# # W W y.# + o o o o o o o o o o o o o o o o o o o o o o + + + ",
"# # W W i.# m x g g g t t 9 3 3 3 3 3 3 3 ; ; o B x x x x g g t ",
"# # W W y.# #.] E E E E G G G G G G G B m x x o ] E E E E E E G ",
"# # A f d # 8.8.q.0.0.0.8.:.:.:.#.#.#.#.] Q E X 0.:.:.:.:.:.:.#.",
"# # W W y.# : : : : : + + + + + + + + + + + o . X X X X o o + + ",
"# # W W i.# x t t t : B G G G G B x x x q q q q 3 > 0 t : G G B ",
"# # W W y.# E L G L : 8.&.| | | ] E E E G G E L G m x m : &.| | ",
"# # A A d # &.:.:.:.: q.u.q.q.0.8.:.:.0.:.:.:.#.{ E L G : :.8.8.",
"# # W W y.# : : : : : : : : : : : : : : : : : : : : : : : : : : ",
"# # W W i.# G B m m m m m x x t t t : G B B B m l t t t t t 3 t ",
"# # W W y.# ] ] L L L L L L G B B G + :.] ] ] ] E L L L B m q g ",
"# # A A d # :.-.#.:.&.&.q.8.8.:.#.] + q.q.q.q.0.8.#.#.#.#.] L L ",
"# # W W y.# : : : : : : : : : : + + X X X o + + : : : : X o + + ",
"# # W W i.# x x x l l : Q G G G G G B m m m m x l t 3 = + L G G ",
"# # W W y.# E E G G G : :.#.] #.#.#.| Q E E E E G G m B + 0.] ] ",
"# # A A f # #.#.#.] { : q.q.q.q.u.u.q.:.:.:.:.:.#.} } #.+ q.q.u.",
"# # W W y.# : : : : : : : : : + + + + + + o + + + + + + o + + + ",
"# # W W i.# E G m m m m m m m x l l l l : ] G G G G B m g l g t "
};
