/* XPM */
static char *_56981e6cd8e41fafd04ec6cda0cd22fY6y28Jk7QFworr88[] = {
/* columns rows colors chars-per-pixel */
"32 32 130 2 ",
"   c None",
".  c #915E41",
"X  c #936143",
"o  c #946143",
"O  c #966445",
"+  c #986647",
"@  c #9B6A49",
"#  c #9C6B4A",
"$  c #A2714E",
"%  c #81593B",
"&  c #956143",
"*  c #946042",
"=  c #946043",
"-  c #966345",
";  c #976546",
":  c #976446",
">  c #9A6948",
",  c #9E6D4C",
"<  c #7E5B3E",
"1  c #ACA4A3",
"2  c #9E7450",
"3  c #7C593E",
"4  c #7D5639",
"5  c #795337",
"6  c #B48158",
"7  c #B0845C",
"8  c #AD8059",
"9  c #AE825A",
"0  c #A47450",
"q  c #A47350",
"w  c #A67652",
"e  c #A87A54",
"r  c #A97A55",
"t  c #AE815A",
"y  c #AF835B",
"u  c #A37350",
"i  c #A1714F",
"p  c #A47451",
"a  c #A57652",
"s  c #A57752",
"d  c #8E6747",
"f  c #936B4A",
"g  c #A1714E",
"h  c #AC7E58",
"j  c #9B6949",
"k  c #9F6E4C",
"l  c #A06F4D",
"z  c #A37450",
"x  c #A47551",
"c  c #A97B55",
"v  c #9D6B4A",
"b  c #9E6E4C",
"n  c #9D6C4B",
"m  c #88563B",
"M  c #8F5B3F",
"N  c #935F41",
"B  c #976445",
"V  c #996747",
"C  c #A16F4D",
"Z  c #956244",
"A  c #755135",
"S  c #9E6D4B",
"D  c #9D6D4B",
"F  c #A2724F",
"G  c #A67753",
"H  c #AA7C56",
"J  c #AC7F58",
"K  c #A87954",
"L  c #AB7D57",
"P  c #AD8159",
"I  c #A77A53",
"U  c #A77954",
"Y  c #A97B56",
"T  c #8B6546",
"R  c #8F5D40",
"E  c #9F6F4D",
"W  c #A2734F",
"Q  c #9A6848",
"!  c #A0704D",
"~  c #905C40",
"^  c #8C593E",
"/  c #925F41",
"(  c #925F42",
")  c #935F42",
"_  c #AA7D57",
"`  c #AA7E57",
"'  c #A87B55",
"]  c #9E6C4B",
"[  c #A67853",
"{  c #A77853",
"}  c #966344",
"|  c #9C6A4A",
" . c #915C40",
".. c #905B3F",
"X. c #8A583D",
"o. c #8D5B3F",
"O. c #8E5C40",
"+. c #905D40",
"@. c #724E34",
"#. c #A77753",
"$. c #A2704E",
"%. c #A57551",
"&. c #A97A54",
"*. c #AB7E57",
"=. c #A0704E",
"-. c #936042",
";. c #996646",
":. c #8B573C",
">. c #8B563C",
",. c #8C583D",
"<. c #8E5A3E",
"1. c #8F5C3F",
"2. c #A1704E",
"3. c #A3724F",
"4. c #8B583D",
"5. c #925E41",
"6. c #A87853",
"7. c #A67752",
"8. c #996647",
"9. c #8F5A3F",
"0. c #8D593D",
"q. c #855339",
"w. c #855239",
"e. c #88553B",
"r. c #8C5A3E",
"t. c #8D5A3E",
"y. c #77553A",
"u. c #906948",
"i. c #7B593E",
"p. c white",
/* pixels */
". X o X O + @ # # # $ % & * = o - ; ; : : O O : > , < 1 2 2 3 3 ",
"4 4 4 5 4 4 4 4 4 4 5 4 4 4 4 4 4 % % % % % % % % % < 6 2 2 3 3 ",
"7 8 9 4 0 q q w e r r e r t 7 7 8 8 8 y % u i p a s < d f f 3 3 ",
"g g h 4 + ; j @ , k k k l z x x x g x c % # j v b k < 6 2 2 3 3 ",
"j j n 4 m M N = - O O O B V j j j j j C % o * Z - - < 1 2 2 3 3 ",
"4 4 5 A % % % % 4 4 5 A A A 4 4 % % % % % % % % % % < 6 2 2 3 3 ",
"S D F x s s G H J 8 8 8 y 4 F 0 K H L P I I e G U Y < T f f 3 3 ",
"X R O + n n S E F W W W K 4 Q V V @ n n n n n S ! F < 6 2 2 3 3 ",
"~ ^ ~ / ( / ( o ; + + + j % ) N ) Z - O O O O B + > < 1 2 2 3 3 ",
"% % % % % % % % % % % % % % % % % % % % % % % % % % < 6 2 2 3 3 ",
"_ ` ' % @ ] k u s c c c J c c H J P 8 7 9 % r K c [ < T f f 3 3 ",
"z z { % B } B j S b @ @ b b k F z z z [ H % S | S b < 6 2 2 3 3 ",
"V j v %  ...X.o.O.O.O.R } } - + j @ @ j V % ) +./ } < 1 2 2 3 3 ",
"4 4 5 5 A A A A @.5 4 4 4 4 4 4 4 4 4 4 4 % % % % % < 6 2 2 3 3 ",
"#.c c c c c c h A , C $.0 %.%.%.K &.c *.J J J 8 L _ < T d f 3 3 ",
"@ b k k k k k =.5 - - O V > > > > > > # b k k E g x < 6 2 2 3 3 ",
". -.-.- - - - ;.5 :.>.,.<.M M M M M 1.. ( -.-.-.Z ; < 1 2 2 3 3 ",
"4 4 4 5 5 5 5 5 5 5 5 5 5 5 5 5 5 5 5 5 5 5 5 5 5 4 < 6 2 2 3 3 ",
"2.q q w H 8 8 8 L L L L P t J J *.% S 3.q w J K a K < T d f 3 3 ",
"- + + Q | v v v v v v v g x a a { % V + + > # v v l < 6 2 2 3 3 ",
"4.<.<.+.5./ / / / / / / -.- ; j n % N 5.N o Z Z Z ;.< 1 2 2 3 3 ",
"4 4 4 4 4 4 4 4 A A A @.A A 4 4 4 4 4 4 4 4 4 4 % % < 6 2 2 3 3 ",
"! F x a e e e G H h *.4 %.6.0 7.K a a a a a s a s H < T f f 3 3 ",
"B : V j @ @ @ @ , l u % : B B 8.j @ @ @ @ @ @ @ | E < 6 2 2 3 3 ",
"9.0.M 1.1.1.1.~ & : B 5 q.w.e.4.r.t.+.+.+.+.+.= o : < 1 2 2 3 3 ",
"< < < < < < < < < < < < < < < < < < < < < < < < < < 3 6 2 2 3 3 ",
"< < < < < < < < < < < < < < < < < < < < < < < < < < < < < < < < ",
"1 6 d 6 1 6 T 6 1 6 T 6 1 6 T 6 1 6 T 6 1 6 T 6 1 6 2 2 2 2 3 3 ",
"2 2 f 2 2 2 f 2 2 2 f 2 2 2 d 2 2 2 d 2 2 2 f 2 2 2 2 2 2 y.y.3 ",
"2 2 u.2 2 2 f 2 2 2 f 2 2 2 f 2 2 2 f 2 2 2 f 2 2 2 2 2 y.3 3 3 ",
"i.i.i.i.i.i.i.i.i.i.i.i.i.i.i.i.i.i.i.i.i.i.i.i.i.3 y.y.y.3 3   ",
"3 3 3 3 3 3 3 3 3 3 3 3 3 3 3 3 3 3 3 3 3 3 3 3 3 3 3 3 3 3     "
};
