/* XPM */
static char *_d84c24c4f314bdbf93eccb803d8389dwlrLnq5tbrncfgX5[] = {
/* columns rows colors chars-per-pixel */
"32 32 140 2 ",
"   c None",
".  c #7C593E",
"X  c #9E7450",
"o  c #ACA4A3",
"O  c #7E5B3E",
"+  c #9E6E4C",
"@  c #9F6E4C",
"#  c #81593B",
"$  c #946042",
"%  c #935F42",
"&  c #915E41",
"*  c #936143",
"=  c #946143",
"-  c #966445",
";  c #986647",
":  c #9B6A49",
">  c #9C6B4A",
",  c #A2714E",
"<  c #956143",
"1  c #946043",
"2  c #966345",
"3  c #976546",
"4  c #976446",
"5  c #B48158",
"6  c #7D5639",
"7  c #795337",
"8  c #936B4A",
"9  c #8E6747",
"0  c #A57752",
"q  c #A97A55",
"w  c #AD8059",
"e  c #AF835B",
"r  c #B0845C",
"t  c #AE825A",
"y  c #A47450",
"u  c #A47350",
"i  c #A67652",
"p  c #A87A54",
"a  c #AE815A",
"s  c #9F6F4D",
"d  c #9E6D4B",
"f  c #A1714E",
"g  c #AC7E58",
"h  c #9B6949",
"j  c #9E6D4C",
"k  c #A06F4D",
"l  c #A37450",
"z  c #A47551",
"x  c #A97B55",
"c  c #986646",
"v  c #9A6948",
"b  c #9D6C4B",
"n  c #88563B",
"m  c #8F5B3F",
"M  c #935F41",
"N  c #976445",
"B  c #996747",
"V  c #A16F4D",
"C  c #755135",
"Z  c #724E34",
"A  c #8B6546",
"S  c #A77954",
"D  c #A97C56",
"F  c #AA7D57",
"G  c #AC7F58",
"H  c #9D6D4B",
"J  c #A2724F",
"K  c #A67753",
"L  c #AA7C56",
"P  c #A87954",
"I  c #AB7D57",
"U  c #AD8159",
"Y  c #A2734F",
"T  c #8F5D40",
"R  c #9A6848",
"E  c #986546",
"W  c #9C6A49",
"Q  c #905C40",
"!  c #8C593E",
"~  c #925F41",
"^  c #925F42",
"/  c #956244",
"(  c #A67853",
")  c #A87A55",
"_  c #AA7E57",
"`  c #A87B55",
"'  c #9E6C4B",
"]  c #A37350",
"[  c #A0704E",
"{  c #A77853",
"}  c #966344",
"|  c #9D6B4A",
" . c #915C40",
".. c #905B3F",
"X. c #8A583D",
"o. c #8D5B3F",
"O. c #8E5C40",
"+. c #A3714F",
"@. c #A77753",
"#. c #A2704E",
"$. c #A57551",
"%. c #A97A54",
"&. c #AB7E57",
"*. c #9D6A49",
"=. c #8E593E",
"-. c #8C583C",
";. c #8E5A3E",
":. c #936042",
">. c #996646",
",. c #8B573C",
"<. c #8B563C",
"1. c #8C583D",
"2. c #8F5C3F",
"3. c #A57652",
"4. c #A1704E",
"5. c #A3724F",
"6. c #9C6A4A",
"7. c #956344",
"8. c #8B583D",
"9. c #905D40",
"0. c #925E41",
"q. c #A2714F",
"w. c #A0704D",
"e. c #A87853",
"r. c #A67752",
"t. c #996647",
"y. c #8F5A3E",
"u. c #8F5A3F",
"i. c #8D593D",
"p. c #855339",
"a. c #855239",
"s. c #88553B",
"d. c #8C5A3E",
"f. c #8D5A3E",
"g. c #8A6445",
"h. c #77553A",
"j. c #8C6546",
"k. c #906948",
"l. c #7B593E",
"z. c white",
/* pixels */
". . X X o O + @ # $ % $ & * = * - ; : > > > , # < $ 1 = 2 3 3 4 ",
". . X X 5 O # # 6 6 6 6 6 6 6 7 6 6 6 6 6 6 7 6 6 6 6 6 6 # # # ",
". . 8 8 9 O 0 q q w e r r w t 6 y u u i p q q p q a r r w w w e ",
". . X X 5 O s s > d f f f f g 6 ; 3 h : j @ @ @ k l z z z f z x ",
". . X X o O 2 2 - c v h h h b 6 n m M 1 2 - - - N B h h h h h V ",
". . X X 5 O # 6 6 7 C Z 6 6 7 C # # # # 6 6 7 C C C 6 6 # # # # ",
". . 8 8 A O S D F F G 6 d H J z 0 0 K L G w w w e 6 J y P L I U ",
". . X X 5 O s J Y Y P 6 * T - ; b b d s J Y Y Y P 6 R B B : b b ",
". . X X o O E R W W d 6 Q ! Q ~ ^ ~ ^ = 3 ; ; ; h # % M % / 2 - ",
". . X X 5 O # # # 6 6 7 # # # # # # # # # # # # # # # # # # # # ",
". . 8 8 A O ( ( ( ( ( ) F _ ` # : ' @ ] 0 x x x G x x L G U w r ",
". . X X 5 O + + + + @ [ l l { # N } N h d + : : + + @ J l l l ( ",
". . X X o O ^ ^ ~ / / - B h | #  ...X.o.O.O.O.T } } 2 ; h : : h ",
". . X X 5 O # # 6 6 6 6 6 6 7 7 C C C C Z 7 6 6 6 6 6 6 6 6 6 6 ",
". . 8 9 A O g # , V V +.@.x x x x x x g C j V #.y $.$.$.P %.x &.",
". . X X 5 O x # - 2 2 E : + @ @ @ @ @ [ 7 2 2 - B v v v v v v > ",
". . X X o O *.# =.-.-.;.& :.:.2 2 2 2 >.7 ,.<.1.;.m m m m m 2.& ",
". . X X 5 O # # # 6 6 6 6 6 6 7 7 7 7 7 7 7 7 7 7 7 7 7 7 7 7 7 ",
". . 8 9 A O 3.( ` D ) # 4.u u i L w w w I I I I U a G G &.# d 5.",
". . X X 5 O b + f f ] # 2 ; ; R 6.| | | | | | | f z 3.3.{ # B ; ",
". . X X o O ^ * 7.- / # 8.;.;.9.0.~ ~ ~ ~ ~ ~ ~ :.2 3 h b # M 0.",
". . X X 5 O 6 6 6 6 6 6 6 6 6 6 6 6 6 6 C C C Z C C 6 6 6 6 6 6 ",
". . 8 8 A O ( ( # q.[ 4.w.J z 3.p p p K L g &.6 $.e.y r.P 3.3.3.",
". . X X 5 O [ s # 3 N N N 4 B h : : : : j k ] # 4 N N t.h : : : ",
". . X X o O 3 N # ..y.y.u.i.m 2.2.2.2.Q < 4 N 7 p.a.s.8.d.f.9.9.",
". . X X 5 . O O O O O O O O O O O O O O O O O O O O O O O O O O ",
"O O O O O O O O O O O O O O O O O O O O O O O O O O O O O O O O ",
". . X X X X g.5 o 5 g.5 o 5 9 5 o 5 A 5 o 5 A 5 o 5 A 5 o 5 A 5 ",
". h.h.X X X g.X X X 9 X X X 8 X X X 8 X X X 8 X X X 9 X X X 9 X ",
". . . h.X X g.X X X j.X X X k.X X X 8 X X X 8 X X X 8 X X X 8 X ",
"  . . h.h.h.. . . . h.. l.l.l.l.l.l.l.l.l.l.l.l.l.l.l.l.l.l.l.l.",
"    . . . . . . . . . . . . . . . . . . . . . . . . . . . . . . "
};
