/* XPM */
static char *_757e1c408bf45189b192ccc7bfc764a1oVsOpJmg1awHNk0[] = {
/* columns rows colors chars-per-pixel */
"32 32 5 1 ",
"  c #17111A",
". c #372538",
"X c #3E375C",
"O c #74A334",
"o c #ADBC3A",
/* pixels */
"OOOOOOOOOOOOOOOOOOOOOOOOOOOOOOOO",
"OOoOOOOOOOOOOOOOOOoOOOOOOOOOOOOO",
"OoOOOOOOOOOOOOOOOoOOOOOOOOOOOOOO",
"OOOOOOOOOOOOOOOOOOOOOOOOOOOOOOOO",
"OOO   OOOOOOOOOOOOOOOOOOOO   OOO",
"OO XXX     OOOOOOOOOO     XXX OO",
"OO XXXXXXXX          XXXXXXXX OO",
"OO ..XXXXXXXXXXXXXXXXXXXXXX.. OO",
"OOO ..  XXXXXXXXXXXXXXXX  .. OOO",
"OOO ....                .... OOO",
"OO XXX....................XXX OO",
"OO XXXXX................XXXXX OO",
"O XXXXXXXXXXXXXXXXXXXXXXXXXXXX O",
"O XXXXXXXXXXXXXXXXXXXXXXXXXXXX O",
"O XXXXXXXXXXXXXXXXXXXXXXXXXXXX O",
"O XXXXXXXXXXXXXXXXXXXXXXXXXXXX O",
"O XXXXXXXXXXXXXXXXXXXXXXXXXXX. O",
"OO XXXXXXXXXXXXXXXXXXXXXXXX.. OO",
"Oo XXXXXXXXXXXXXXXXXXXXXXX... OO",
"OOO XXXXXXXXXXXXXXXXXXXXX... OOO",
"OOO XXXXXXXXXXXXXXXXXXX..... OOO",
"OOOO XXXXXXXXXXXXXXXXX..... OOOO",
"OOOOO ..XXXXXXXXXXXX...... OOOOO",
"OOOOOO .XXXXXXXXX........ OOOOOO",
"OOOOOO .................. OOOOOO",
"OOOOOO .................. OOOOOO",
"OOOOO ...   ........   ... OOOOO",
"OOOOO .. OOO        OOO .. OOOOO",
"OOOOO .. OOOOOOOOOOOOOO .. OOOOO",
"OOOOOO  OOOOoOOOOOOOOOOO  OOoOOO",
"OOOOOOOOOOOOOoOOOOOOOOOOOOOOOoOO",
"OOOOOOOOOOOOOOOOOOOOOOOOOOOOOOOO"
};
