/* XPM */
static char *result[] = {
/* columns rows colors chars-per-pixel */
"32 32 9 1 ",
"  c #BF4830",
". c #F77622",
"X c #D77643",
"o c #ADBC3A",
"O c #74A334",
"+ c #FEAE34",
"@ c #C28569",
"# c #E8B796",
"$ c #EBD4AB",
/* pixels */
"OOOOOOOOOOOOOOOOOOOOOOOOOOOOOOOO",
"OOoOOOOOOOOOOOOOOOoOOOOOOOOOOOOO",
"OoOOOOOOOOOOOOOOOoOOOOOOOOOOOOOO",
"OOOOOOOOOOOOOOOOOOOOOOOOOOOOOOOO",
"OOOOOOOOOOOOOOOOOOOOOOOOOOOOOOOO",
"OOOOOOOOOOOOOOOOOOOOOOOOOOOOOOOO",
"OOOOOOOOOOOOOOOOOOO$$OO$$OOOOOOO",
"OOOOOOOOOOOOOOOOOOO$##O$$$#OOOOO",
"OOOOOOOOOOOOOOOOOO$##@O$###OOOOO",
"OOOOOOOOOOOOOOOO$$$@OO$##@@OOOOO",
"OOOOOOOOOOOO....#$@O.$##OOOOOOOO",
"OOOOOOOOOO......  ....#OOOOOOOOO",
"OOOOOOOOO....X  ... .. OOOOOOOOO",
"OOOOOOOO...X   ..+X..X  OOOOoOOO",
"OOOOOOO..XX   .+ XX.X.  OOOOOoOO",
"OOOOOOO.XX   ...XX XX   OOOOOOOO",
"OOOOOO..X +++ ..+. X.  OOOOOOOOO",
"OOoOO .. +...+ ..XXXX   OOOOOOOO",
"OoOO. .X+..X...  XXXXX   OOOOOOO",
"OOO.  . +XXXX.XX  XXXX    OOOOOO",
"OOO.  . XXXX XXX.X XXXX   OOOOOO",
"OOOX  .  .XXX    XX XXX   OOOOOO",
"OOOOX .. XXXX       XX   OOOOOOO",
"OOOOOO X  XXXX          OOOOOOOO",
"OOOOOOOOOOOOOOOOOOOOOOOOOOOOOOOO",
"OOOOOOOOOOOOOOOOOOOOOOOOOOOOOOOO",
"OOOOOOOOOOOOOOOOOOOOOOOOOOOOOOOO",
"OOOOOOOOOOOOOOOOOOOOOOOOOOOOOOOO",
"OOOOOOOOOOOOOOOOOOOOOOOOOOOOOOOO",
"OOOOOOOOOOOOoOOOOOOOOOOOOOOOoOOO",
"OOOOOOOOOOOOOoOOOOOOOOOOOOOOOoOO",
"OOOOOOOOOOOOOOOOOOOOOOOOOOOOOOOO"
};
