/* XPM */
static char *result[] = {
/* columns rows colors chars-per-pixel */
"32 32 10 1 ",
"  c black",
". c #365013",
"X c #994202",
"o c #CF6416",
"O c #EC7825",
"+ c #5F8820",
"@ c #ADBC3A",
"# c #74A334",
"$ c #FFC499",
"% c white",
/* pixels */
"############## + ###############",
"##@########### .+ @#############",
"#@############ .+ ##############",
"########    ## .+. #    ########",
"######  $o$$  +.+.  o$$$  ######",
"####  XXoOOo$$    OoooOo$$  ####",
"### XXoOOOoooOOOOOOOoooOoo$$ ###",
"## XooOOOOoooOOoOOOOoooOOOoo$ ##",
"## XooOOOOoooOOOOOOOoooOOOOo$ ##",
"# XooOOOOoooOOOOOOOOOoooOOOOo$ #",
"# XooOOOOoooOOOOOoOOOoooOoOOo$ #",
"# XooOoOOoooOOOOOOOOOoooOOOOo$ #",
"# XooOOOOoooOOooOOOOOoooOOOOoX #",
" XooOOOOOoooOOooOOOoOoooOOOOOo$ ",
" XooOOOOOooooOOOOOOOOoooooooOo$ ",
" XooOOOOooXXXXOOOOOOoooXXXXOOoX ",
" XooOOOOoX   %oOOOOOooX   %oOo$ ",
" XooOoOOoX    oOOOOOooX    oOoX ",
" XooOOOOooX  XoOOOOOoooX  XoOoX ",
"# XooOOOOooXXoX% % % %XoXXoOoX #",
"# XooOOOOooooOX       XoooOOoX #",
"# XooOOOOooooOoX% % %XooooOOoX #",
"# XooOOOOOoooOOoXXXXXoooooOOoX #",
"## XoooOOOoooOOOoooooooooOooX ##",
"### XXooOOoooOOOOOOOOoooooXX ###",
"####   XoOOoooOoOOOOOooXX   ####",
"#######     oooOOOOooX   #######",
"############          ##########",
"################################",
"############@###############@###",
"#############@###############@##",
"################################"
};
