/* XPM */
static char *c1aa1d147c0b41a7c95bc1be304af390n4SSD7oa6sV0bbuu[] = {
/* columns rows colors chars-per-pixel */
"32 32 10 1 ",
"  c black",
". c #365013",
"X c #994202",
"o c #CF6416",
"O c #EC7825",
"+ c #5F8820",
"@ c #ADBC3A",
"# c #74A334",
"$ c #FFC499",
"% c white",
/* pixels */
"################################",
"##@##########  ###@#############",
"#@########### . #@##############",
"############# .+ ###############",
"############## + ###############",
"############## .+ ##############",
"############## .+ ##############",
"########    ## .+. ##   ########",
"######  $o$$  +.+.   $$$  ######",
"####  XXoOOo$$    OoooOo$$  ####",
"### XXoOOOoooOOOOOOOoooOoo$$ ###",
"## XooOOOOoooOOoOOOOoooOOOoo$ ##",
"## XooOOOOoooOOOOOOOoooOOOOo$ ##",
"# XooOOOOoooOOOOOoOOOoooOoOOo$ #",
"# XooOoOOoooOOOOOOOOOoooOOOOo$ #",
"# XooOOOOoooOOooOOOOOoooOOOOoX #",
" XooOOOOOooooOooOOOoOooooooOOo$ ",
" XooOOOOOoXXXXOOOOOOOooXXXXoOo$ ",
" XooOOOOoX   %oOOOOOooX   %OOoX ",
" XooOOOOoX    oOOOOOooX    oOo$ ",
" XooOoOOooX  XoOOOOOoooX  XoOoX ",
"# XooOOOOooXXoX% % % %XoXXoOoX #",
"# XooOOOOooooOX       XoooOOoX #",
"# XooOOOOooooOoX% % %XooooOOoX #",
"# XooOOOOOoooOOoXXXXXoooooOOoX #",
"## XoooOOOoooOOOoooooooooOooX ##",
"### XXooOOoooOOOOOOOOoooOoXX ###",
"####   XoOOoooOoOOOOoooXX   ####",
"#######     oooOOOOooX   #######",
"############          ######@###",
"#############@###############@##",
"################################"
};
