/* XPM */
static char *_d5ecae2a2404dea9a769abab7d84500edcqP9rl4TnXq6Jq[] = {
/* columns rows colors chars-per-pixel */
"32 32 10 1 ",
"  c black",
". c #365013",
"X c #994202",
"o c #CF6416",
"O c #EC7825",
"+ c #5F8820",
"@ c #ADBC3A",
"# c #74A334",
"$ c #FFC499",
"% c white",
/* pixels */
"############### +. #############",
"##@############ + @#############",
"#@############ +. ##############",
"############## +. ##############",
"########    # .+. ##    ########",
"######  $$$o  .+.+  $$o$  ######",
"####  $$oOoooO    $$oOOoXX  ####",
"### $$ooOoooOOOOOOOoooOOOoXX ###",
"## $ooOOOoooOOOOoOOoooOOOOooX ##",
"## $oOOOOoooOOOOOOOoooOOOOooX ##",
"# $oOOOOoooOOOOOOOOOoooOOOOooX #",
"# $oOOoOoooOOOoOOOOOoooOOOOooX #",
"# $oOOOOoooOOOOOOOOOoooOOoOooX #",
"# XoOOOOoooOOOOOooOOoooOOOOooX #",
" $oOOXXXXooOoOOOoOXXXXoOOOOOooX ",
" $oOo%   XoOOOOOOo%   XOOOOOooX ",
" XoOo    XoOOOOOOo    XOOOOOooX ",
" $oOoX  XooOOOOOOoX  XoOOOOOooX ",
" XoOOoXXoX% % % %XoXXoooOOoOooX ",
" $oOOOOooX       XOOOoooOOOOooX ",
" XoOOOOooX       XOOOoooOOOOooX ",
" XoOOOOooX       XOOOoooOOOOooX ",
"# XoOOOooX       XOOOoooOOOooX #",
"# XoOOOooX       XOOoooOOOOooX #",
"# XoOOOooX       XOOoooOOOOooX #",
"# XoOOOOooX% % %XoOoooOOOOOooX #",
"## XooOOoooXXXXXoOOoooOOOoooX ##",
"### XXoOoooOOOOOOOOoooOOooXX ###",
"####   XXooOOOOOoOoooOOoX   ####",
"#######   XooOOOOooo     ###@###",
"##########          #########@##",
"################################"
};
