/* XPM */
static char *result[] = {
/* columns rows colors chars-per-pixel */
"32 32 10 1 ",
"  c black",
". c #365013",
"X c #994202",
"o c #CF6416",
"O c #EC7825",
"+ c #5F8820",
"@ c #ADBC3A",
"# c #74A334",
"$ c #FFC499",
"% c white",
/* pixels */
"############# .+ ###############",
"##@########### + #@#############",
"#@############ .+ ##############",
"############## .+ ##############",
"########    ## .+. #    ########",
"######  $o$$  +.+.  o$$$  ######",
"####  XXoOOo$$    OoooOo$$  ####",
"### XXoOOOoooOOOOOOOoooOoo$$ ###",
"## XooOOOOoooOOoOOOOoooOOOoo$ ##",
"## XooOOOOoooOOOOOOOoooOOOOo$ ##",
"# XooOOOOoooOOOOOOOOOoooOOOOo$ #",
"# XooOOOOoooOOOOOoOOOoooOoOOo$ #",
"# XooOoOOoooOOOOOOOOOoooOOOOo$ #",
"# XooOOOOoooOOooOOOOOoooOOOOoX #",
" XooOOOOOoXXXXOoOOOoOooXXXXOOo$ ",
" XooOOOOOX   %oOOOOOOoX   %oOo$ ",
" XooOOOOOX    oOOOOOOoX    oOoX ",
" XooOOOOOoX  XoOOOOOOooX  XoOo$ ",
" XooOoOOoooXXoX% % % %XoXXoOOoX ",
" XooOOOOoooOOOX       XooOOOOo$ ",
" XooOOOOoooOOOX       XooOOOOoX ",
" XooOOOOoooOOOX       XooOOOOoX ",
"# XooOOOoooOOOX       XooOOOoX #",
"# XooOOOOoooOOX       XooOOOoX #",
"# XooOOOOoooOOX       XooOOOoX #",
"# XooOOOOOoooOoX% % %XooOOOOoX #",
"## XoooOOOoooOOoXXXXXoooOOooX ##",
"### XXooOOoooOOOOOOOOoooOoXX ###",
"####   XoOOoooOoOOOOOooXX   ####",
"#######     oooOOOOooX   ###@###",
"############          #######@##",
"################################"
};
