/* XPM */
static char *bf9ca742665d4d4bfe4ff37158d34d05pDE71vOdJFDFdAjo[] = {
/* columns rows colors chars-per-pixel */
"32 32 236 2 ",
"   c #A97B55",
".  c #A47551",
"X  c #AD8059",
"o  c #B2A59D",
"O  c #B1865D",
"+  c #B5A194",
"@  c #B2774F",
"#  c #9F6F4D",
"$  c #A96E47",
"%  c #A77049",
"&  c #AE754C",
"*  c #AC7049",
"=  c #A1724F",
"-  c #B47A51",
";  c #B88056",
":  c #B37850",
">  c #A0704E",
",  c #AF764D",
"<  c #B0774E",
"1  c #AE734B",
"2  c #A47450",
"3  c #B57B52",
"4  c #B98357",
"5  c #BA8458",
"6  c #B77F54",
"7  c #A57652",
"8  c #AF754C",
"9  c #B27B50",
"0  c #B0794F",
"q  c #AC7149",
"w  c #9B6A49",
"e  c #B1754E",
"r  c #AB764D",
"t  c #AE784F",
"y  c #A67853",
"u  c #B87F55",
"i  c #BB865B",
"p  c #BB875B",
"a  c #B88156",
"s  c #A77954",
"d  c #B47D52",
"f  c #B47E52",
"g  c #B1794F",
"h  c #A87A54",
"j  c #B98257",
"k  c #BC885C",
"l  c #BD8A5D",
"z  c #BB8559",
"x  c #AB7E57",
"c  c #B37D51",
"v  c #B58154",
"b  c #B48053",
"n  c #B17A4F",
"m  c #B2764F",
"M  c #9D6D4B",
"N  c #AC734A",
"B  c #A9744B",
"V  c #AD774E",
"C  c #A57752",
"Z  c #B67E54",
"A  c #BB865A",
"S  c #B37F52",
"D  c #B37E52",
"F  c #B38054",
"G  c #B28053",
"H  c #B17B50",
"J  c #A87B55",
"K  c #B67F55",
"L  c #B57D54",
"P  c #A76A45",
"I  c #A9734B",
"U  c #AD744B",
"Y  c #A47651",
"T  c #BA855A",
"R  c #B98156",
"E  c #AA7C56",
"W  c #B58254",
"Q  c #B27C50",
"!  c #BD895D",
"~  c #AA7D57",
"^  c #AA6E48",
"/  c #AC744B",
"(  c #AC724A",
")  c #A37450",
"_  c #B57C54",
"`  c #B98358",
"'  c #A97C56",
"]  c #B68355",
"[  c #B47F52",
"{  c #B27D51",
"}  c #BC875B",
"|  c #B37951",
" . c #A76C46",
".. c #A86E47",
"X. c #B37952",
"o. c #B88157",
"O. c #BA8459",
"+. c #A87A55",
"@. c #AB7F58",
"#. c #B78355",
"$. c #BC895C",
"%. c #9E6D4C",
"&. c #A56844",
"*. c #A0704D",
"=. c #B17650",
"-. c #B77F56",
";. c #AC7F58",
":. c #C09062",
">. c #B78456",
",. c #A77853",
"<. c #AD724A",
"1. c #9A6848",
"2. c #B17750",
"3. c #B67E55",
"4. c #BB855A",
"5. c #B47B53",
"6. c #AF794E",
"7. c #B37F54",
"8. c #BD8A5E",
"9. c #B17C50",
"0. c #AE784D",
"q. c #AD764C",
"w. c #AE6F4B",
"e. c #B78056",
"r. c #B48153",
"t. c #BA8358",
"y. c #AA7D56",
"u. c #AF7A50",
"i. c #AF774D",
"p. c #B37C51",
"a. c #AF7950",
"s. c #AA6F48",
"d. c #B1754F",
"f. c #BF8E61",
"g. c #BF8F61",
"h. c #B07A4F",
"j. c #B17D52",
"k. c #B07B51",
"l. c #AB734C",
"z. c #966445",
"x. c #AD6E4A",
"c. c #AB7C55",
"v. c #B17E52",
"b. c #AD764E",
"n. c #A67753",
"m. c #9A6949",
"M. c #AA7049",
"N. c #B27E53",
"B. c #C08F62",
"V. c #B88556",
"C. c #B98258",
"Z. c #A66A45",
"A. c #AC754D",
"S. c #B88055",
"D. c #BE8C60",
"F. c #B0784E",
"G. c #B88557",
"H. c #B58053",
"J. c #B98359",
"K. c #A96F48",
"L. c #AE774D",
"P. c #B0794E",
"I. c #A67652",
"U. c #A57551",
"Y. c #B68455",
"T. c #BF8D60",
"R. c #AB7049",
"E. c #AC714A",
"W. c #A2724F",
"Q. c #B37851",
"!. c #C08E61",
"~. c #B68154",
"^. c #B17C51",
"/. c #B88456",
"(. c #AC8058",
"). c #B27750",
"_. c #B67D54",
"`. c #B77E55",
"'. c #B58354",
"]. c #B07B4F",
"[. c #9C6B4A",
"{. c #B68254",
"}. c #AE704C",
"|. c #A1714F",
" X c #B47F53",
".X c #B0744E",
"XX c #9F6E4C",
"oX c #A37350",
"OX c #AF724D",
"+X c #9D6C4B",
"@X c #A86C46",
"#X c #A9714A",
"$X c #AC744D",
"%X c #BE8A5E",
"&X c #B27C51",
"*X c #BE8D60",
"=X c #AA6B48",
"-X c #A86B45",
";X c #A86F49",
":X c #AB7048",
">X c #B37A52",
",X c #B88257",
"<X c #AF774E",
"1X c #986647",
"2X c #A86B46",
"3X c #AB724A",
"4X c #A96D47",
"5X c #9A6948",
"6X c #AF794F",
"7X c #B57F53",
"8X c #A46743",
"9X c #AD734B",
"0X c #9A6849",
"qX c #AD744C",
"wX c #AE794F",
"eX c #BD895E",
"rX c #AD784E",
"tX c #AE7A4F",
"yX c #A96D46",
"uX c #A06F4D",
"iX c #AC774E",
"pX c #A36542",
"aX c #B77F55",
"sX c #B27851",
"dX c #926143",
"fX c #AC6C49",
"gX c #AF714C",
"hX c #A76B45",
"jX c #A9704A",
"kX c #9E6E4C",
"lX c #A76D46",
"zX c #AE744B",
"xX c #B58B60",
"cX c #B9A99E",
"vX c #B19E91",
"bX c white",
/* pixels */
"      . . . . . . . . . . . . . . . . . . . . . . . . . .   X X ",
"  o O                     X X X X X X X X X X X X X X     O +   ",
"  X @ @ # $ % & * = - ; ; : > * , < 1 2 3 4 5 6 7 8 9 0 q w X   ",
".   e . & r t , y u i p a s < d f g h j k l z x c v b n = m   . ",
".   M N B V & C Z A p j   9 S S n h j k l z x D F G H J K L   . ",
".   P I I U Y L T A R E c F W Q   j k ! z x f G F c ~ j i Z   . ",
".   ^ / ( ) _ ` T ; ' c F ] [ x 4 k ! 5 x { W F f x 5 k } |   . ",
". X  ...= X.o.O.u +.c F ] [ @.O.! l 5 x { W #.f x 5 $.k a %.  . ",
". X &.*.=.-.o.L h 9 F F [ ;.z l :.5 x { W >.f ,.5 $.k a h <.  . ",
". X 1.2.3.4.5.y 6.7.#.f x z 8.l 5 x 9.W >.f s 5 ! k a h 0.q.  . ",
". X w.3.e.5.C g S r.D x z l :.t.y.9.F >.f @.z ! k a h 0 u.,   . ",
". X =.e.5.7 i.D b p.~ 5 l $.! E H W #.f s z l $.j   6.f a.s.  . ",
". X d.X.. , { S 9 ' 4 ! f.j E a.7.>.[ s z l g.j ' h.j.k.l.z.  . ",
". X x.= & H { n   j k p a   H 7.#.[ ;.z :.k j c.u.F v.b.n.m   . ",
". X m.M.t 9.0 h R } i ; h g N.W f ;.z l B.j ' 9.] V.{   K C.  . ",
". X Z.A.h.i.y S.D.D.; s F.f b { x z l ! j E 9.] G.H.;.4 D.J.  . ",
". X K.L.& . L O.T a h P.f { 6.I.5 B.f.j U.9.Y.G.H.;.z g.T.-.  . ",
". X R.E.W.Q.o.!.Z +.Q ~.^.0.2 R k k j U.Q W /.H.(.z B.f.R 2   . ",
". X P W.)._.`.5.y 9 /.'.].2 ; p T.R ' Q 7.W [ @.z ! k a J 8   . ",
".   [.| 3._ ).) i.{.W 9.7 a A A a   c W ] f ~ 5 $.} a s g 9   . ",
".   }._._.=.|.( H j.H 7 a A 4.K h 9 W ]  X~ 4 k p ; s < f g   . ",
".   .X5..XXXR.L.H L.oX; A T Z y 0 S r.f x 4 k p ; ,., 9 p.q   . ",
".   OXOX+X@X#X$X& > L O.%XL y i.&X{ 9   j k *X; h < 9 9 & #   . ",
".   =X+X-X;X#X:X+X>X,X` _ C , p.H <Xs S.T i ; s g f p.& ) e   . ",
".   1X2XE.3X4X5X).-.o.5.. & 6X9 , C Z O.T Z y 0 7X[ < . 5.5.  . ",
".   8X9X9X4X0Xd._ 3.>X) qXwX6X, C L J.eXL 7 , f  Xg s L C.5.  . ",
".   @X9Xs.*.=._ _.Q.) & wX9 , C L ` C._ 7 & rXtXF.+.; T ` e   . ",
".   -XyXuX)._.3.Q.) & 9 t i.y u O.C._ 7 , 9 iX, s a k } K >   . ",
".   pX1Xd.3.aXsXW.U 9 rX& n.K T ` 5.. & t t / C S.k k j h q   . ",
"  X dXfX.X=.gX[.hX( jX$ %.e _ L e kX4XU #XlX# @ a j L U.zX* X   ",
"xXcXX     X X X X X X X O X       X X   X X     X X       X vX  ",
"O X   . . . . . . . . . . . . . . . . . . . . . . . . . .   X   "
};