/* XPM */
static char *a035f5d0bb1e4c7be93caec816b089d2Vykqk2X90ec21gSe[] = {
/* columns rows colors chars-per-pixel */
"32 32 142 2 ",
"   c #724E34",
".  c #755135",
"X  c #795337",
"o  c #77553A",
"O  c #7D5639",
"+  c #7B593E",
"@  c #7C593E",
"#  c #7E5B3E",
"$  c #855239",
"%  c #855339",
"&  c #88553B",
"*  c #88563B",
"=  c #8B563C",
"-  c #8B573C",
";  c #81593B",
":  c #8A583D",
">  c #8B583D",
",  c #8C583C",
"<  c #8C583D",
"1  c #8D593D",
"2  c #8C593E",
"3  c #8E593E",
"4  c #8C5A3E",
"5  c #8D5A3E",
"6  c #8D5B3F",
"7  c #8E5A3E",
"8  c #8F5A3E",
"9  c #8F5A3F",
"0  c #8F5B3F",
"q  c #8F5C3F",
"w  c #905B3F",
"e  c #8E5C40",
"r  c #8F5D40",
"t  c #905C40",
"y  c #915C40",
"u  c #905D40",
"i  c #915E41",
"p  c #925E41",
"a  c #925F41",
"s  c #935F41",
"d  c #925F42",
"f  c #935F42",
"g  c #8A6445",
"h  c #8B6546",
"j  c #8C6546",
"k  c #8E6747",
"l  c #936042",
"z  c #936143",
"x  c #946042",
"c  c #946043",
"v  c #946143",
"b  c #956143",
"n  c #956244",
"m  c #956344",
"M  c #966344",
"N  c #966345",
"B  c #966445",
"V  c #976445",
"C  c #976446",
"Z  c #976546",
"A  c #986546",
"S  c #986646",
"D  c #996646",
"F  c #986647",
"G  c #996647",
"H  c #996747",
"J  c #906948",
"K  c #936B4A",
"L  c #9A6848",
"P  c #9A6948",
"I  c #9B6949",
"U  c #9B6A49",
"Y  c #9C6A49",
"T  c #9D6A49",
"R  c #9C6A4A",
"E  c #9C6B4A",
"W  c #9D6B4A",
"Q  c #9D6C4B",
"!  c #9D6D4B",
"~  c #9E6C4B",
"^  c #9E6D4B",
"/  c #9E6D4C",
"(  c #9E6E4C",
")  c #9F6E4C",
"_  c #9F6F4D",
"`  c #9E7450",
"'  c #A06F4D",
"]  c #A16F4D",
"[  c #A0704D",
"{  c #A0704E",
"}  c #A1704E",
"|  c #A1714E",
" . c #A1714F",
".. c #A2704E",
"X. c #A2714E",
"o. c #A2714F",
"O. c #A3714F",
"+. c #A2724F",
"@. c #A3724F",
"#. c #A2734F",
"$. c #A37350",
"%. c #A47350",
"&. c #A37450",
"*. c #A47450",
"=. c #A47451",
"-. c #A47551",
";. c #A57551",
":. c #A57652",
">. c #A57752",
",. c #A67652",
"<. c #A67752",
"1. c #A67753",
"2. c #A77753",
"3. c #A67853",
"4. c #A77853",
"5. c #A77A53",
"6. c #A77954",
"7. c #A87853",
"8. c #A87954",
"9. c #A87A54",
"0. c #A97A54",
"q. c #A87A55",
"w. c #A97A55",
"e. c #A87B55",
"r. c #A97B55",
"t. c #A97B56",
"y. c #A97C56",
"u. c #AA7C56",
"i. c #AA7D57",
"p. c #AB7D57",
"a. c #AA7E57",
"s. c #AB7E57",
"d. c #AC7E58",
"f. c #AC7F58",
"g. c #AD8059",
"h. c #AD8159",
"j. c #AE815A",
"k. c #AE825A",
"l. c #AF835B",
"z. c #B48158",
"x. c #B0845C",
"c. c #ACA4A3",
/* pixels */
"@ @ @ @ @ @ @ @ @ @ @ @ @ @ @ @ @ @ @ @ @ @ @ @ @ @ @ @ @ @ @ @ ",
"@ + + + + + + + + + + + + + + + + + + + + + + + + + @ o @ @ @ @ ",
"` ` ` K ` ` ` K ` ` ` K ` ` ` K ` ` ` K ` ` ` K ` ` ` k ` ` ` h ",
"` ` ` K ` ` ` k ` ` ` k ` ` ` K ` ` ` K ` ` ` K ` ` ` k ` ` ` h ",
"z.c.z.h z.c.z.h z.c.z.h z.c.z.h z.c.z.h z.c.z.k z.c.z.h z.c.z.h ",
"@ @ @ @ @ @ @ @ @ @ @ @ @ @ @ @ @ @ @ @ @ @ @ @ @ @ @ @ @ @ @ @ ",
"@ @ @ @ @ @ @ # @ @ @ @ @ @ @ @ @ @ # @ @ @ @ @ @ @ @ @ @ @ @ @ ",
"C v v u u u u u 4 4 > & % % X C C v u w q q q 4 4 4 4 4 w ; G G ",
"_ Y U U U U U U U Y G C C C ; $.' _ U U U U U G C C C C C ; _ | ",
"s.<.<.<.<.<.<.<.<.0.<.<.7.<.O s.f.s.<.0.0.0.<.<.| | | | | ; 4.4.",
"; ; O O O O O O O O O O . .   . . . O O O O O O O O O O O O O O ",
"G N N N v u u u ; Q U C N l u u u u u u u u u 4 4 > ; N C N l u ",
"' Y Y Y U G G G ; 4.<.<.<.| Y Y Y Y Y Y Y Y U G G N ; $.| | _ Q ",
"0.<.0.f.<.%.| Q ; s.f.f.j.j.s.s.s.s.j.j.j.s.<.%.%.| ; 0.s.0.4.<.",
"O X X X X X X X X X X X X X X X X X X X X X X O O O O O O ; ; ; ",
"C N l l l u u q 4 4 4 4 4 4 4 = = X G N N N N l l u 4 4 4 4 ; Y ",
"<.| _ _ _ _ Y U U U U U U G C N N X | _ _ _ _ _ _ U G N N C ; 0.",
"s.s.j.f.f.f.s.0.0.0.<.<.<.<.| ' _ . f.0.0.0.0.0.0.<.| ' ' | ; f.",
"; ; ; ; ; O O O O O O O O O O O X   . . . . X X O O O O O O ; ; ",
"N u u u ; G U U U U G N N N r r r r 4 > w u ; Y U G C N N u u u ",
"_ Q Y Q ; s.4.&.&.&.| _ _ _ U U _ Q U C N C ; 4.&.&.| _ _ _ _ _ ",
"4.0.0.0.; j.x.j.j.f.s.0.0.f.0.0.0.<.$._ Q U ; 0.s.s.0.4.4.4.4.4.",
"; ; ; ; ; ; ; ; ; ; ; ; ; ; ; ; ; ; ; ; ; ; ; ; ; ; X O O ; ; ; ",
"U G C C C C C N N u u u ; U G G G C v u u u u u 4 u O Q Y Y U G ",
"| | Q Q Q Q Q Q U G G U O 0.| | | | _ Q Q Q G C r l O 0.| | | _ ",
"0.6.<.0.4.4.j.s.s.0.<.| O j.j.j.j.f.s.<.<.<.<.| Q Q O f.s.s.s.6.",
"; ; ; ; ; ; ; ; ; ; O O . . . X O O ; ; ; ; . X O O   . X O O ; ",
"N N N v v ; ' U U U U U G C C C C N v u 4 & O Q U U U U G C N N ",
"_ _ Y U Y ; 0.<.| <.<.<.&.' _ _ _ _ U U C G O f.| | | | Q Y _ _ ",
"<.<.<.| $.; j.j.j.j.x.x.j.0.0.0.0.0.<.%.%.<.O j.j.x.x.j.j.0.0.<.",
"; ; ; ; ; ; ; ; ; O O O O O O X O O O O O O X O O O O O O O ; ; ",
"_ U C C C C C C C N v v v v ; | Y Y Y U G C l v l u v u v ; _ _ "
};
