/* XPM */
static char *fae08fe05c42410ba2e79f952eef0d80mG8ZCvt8WB0rAUcB[] = {
/* columns rows colors chars-per-pixel */
"32 32 140 2 ",
"   c #724E34",
".  c #755135",
"X  c #795337",
"o  c #7D5639",
"O  c #7C593E",
"+  c #7E5B3E",
"@  c #855239",
"#  c #855339",
"$  c #88553B",
"%  c #88563B",
"&  c #8B563C",
"*  c #8B573C",
"=  c #81593B",
"-  c #8A583D",
";  c #8B583D",
":  c #8C583C",
">  c #8C583D",
",  c #8D593D",
"<  c #8C593E",
"1  c #8E593E",
"2  c #8C5A3E",
"3  c #8D5A3E",
"4  c #8D5B3F",
"5  c #8E5A3E",
"6  c #8F5A3E",
"7  c #8F5A3F",
"8  c #8F5B3F",
"9  c #8F5C3F",
"0  c #905B3F",
"q  c #8E5C40",
"w  c #8F5D40",
"e  c #905C40",
"r  c #915C40",
"t  c #905D40",
"y  c #915D40",
"u  c #915E41",
"i  c #925E41",
"p  c #925F41",
"a  c #935F41",
"s  c #925F42",
"d  c #935F42",
"f  c #8A6445",
"g  c #8B6546",
"h  c #8E6747",
"j  c #936042",
"k  c #936143",
"l  c #946042",
"z  c #946043",
"x  c #946143",
"c  c #956143",
"v  c #956244",
"b  c #956344",
"n  c #966344",
"m  c #966345",
"M  c #966445",
"N  c #976445",
"B  c #976446",
"V  c #976546",
"C  c #986546",
"Z  c #986646",
"A  c #996646",
"S  c #986647",
"D  c #996647",
"F  c #996747",
"G  c #936B4A",
"H  c #9A6848",
"J  c #9A6948",
"K  c #9B6949",
"L  c #9B6A49",
"P  c #9C6A49",
"I  c #9D6A49",
"U  c #9C6A4A",
"Y  c #9C6B4A",
"T  c #9D6B4A",
"R  c #9D6C4B",
"E  c #9D6D4B",
"W  c #9E6C4B",
"Q  c #9E6D4B",
"!  c #9E6D4C",
"~  c #9E6E4C",
"^  c #9F6E4C",
"/  c #9F6F4D",
"(  c #9E7450",
")  c #A06F4D",
"_  c #A16F4D",
"`  c #A0704D",
"'  c #A0704E",
"]  c #A1704E",
"[  c #A1714E",
"{  c #A2704E",
"}  c #A2714E",
"|  c #A2714F",
" . c #A3714F",
".. c #A2724F",
"X. c #A3724F",
"o. c #A2734F",
"O. c #A37350",
"+. c #A47350",
"@. c #A37450",
"#. c #A47450",
"$. c #A47451",
"%. c #A47551",
"&. c #A57551",
"*. c #A57651",
"=. c #A57652",
"-. c #A57752",
";. c #A67652",
":. c #A67752",
">. c #A67753",
",. c #A77753",
"<. c #A67853",
"1. c #A77853",
"2. c #A77954",
"3. c #A87853",
"4. c #A87954",
"5. c #A87A54",
"6. c #A97A54",
"7. c #A87A55",
"8. c #A97A55",
"9. c #A87B55",
"0. c #A97B55",
"q. c #A97C56",
"w. c #AA7C56",
"e. c #AA7D56",
"r. c #AA7D57",
"t. c #AB7D57",
"y. c #AA7E57",
"u. c #AB7E57",
"i. c #AC7E58",
"p. c #AC7F58",
"a. c #AD8059",
"s. c #AD8159",
"d. c #AE815A",
"f. c #AD825A",
"g. c #AE825A",
"h. c #AF835B",
"j. c #B48158",
"k. c #B0845C",
"l. c #B0855C",
"z. c #ACA4A3",
/* pixels */
"0.%.[ %.%.%.@.) ^ ^ ^ ^ H H V F o i.[ [ [ [ R Y ^ ^ + j.( ( O O ",
"h.h.h.h.k.k.h.0.0.0.0.0.%.+.+.%.o h.h.k.k.h.h.0.0.%.+ h G G O O ",
"= = = o o o o o o X o o o o o o X o o o o o o o = = + j.( ( + + ",
"V V V m c c c c = [ Y Y Y H F V j c j t c t c = ^ ^ + z.( ( + + ",
"[ [ ) R Y Y Y R = w.%.%.%.%.[ [ [ [ ^ R Y Y R = 2.0.+ j.( ( + + ",
"w.w.w.0.%.%.O.@.= h.h.h.h.h.w.2.2.2.2.%.O.O.%.= 0.w.+ g h h + + ",
"= = o o o o X X X X X o o o o o o o X = = = = = = = + j.( ( + + ",
"F F H H F F F m c c t 9 3 3 3 3 t t o [ R H H F m c + z.( ( + + ",
"[ O.O.O.O.O.[ ^ R R R H F F F F F H = w.2.%.@.O.[ ^ + j.( ( + + ",
"w.w.w.w.w.w.0.<.%.%.%.O.[ [ [ [ %.O.= k.h.i.w.w.2.<.+ f g g + + ",
"o o o o o o o o o o o o o o o o o o o o o o o o o o + j.( ( + + ",
"t t 3 3 ; $ # # X V V c t 9 9 9 9 3 3 3 3 3 0 = V V + z.( ( + O ",
"H H H H F V V V = O.) ^ H H H H H F V V V V V = ^ [ + j.( ( O O ",
"%.%.%.0.%.%.3.%.o w.i.w.%.0.0.0.%.%.[ [ [ [ [ = <.<.+ g G G O O ",
"o o o o o o . .   . . . o o o o o o o o o o o o o o + j.( ( + + ",
"t t = R H V m j t t t t t t t t t 3 3 ; = m V m j t + z.( ( + + ",
"F F = <.%.%.%.[ Y Y Y Y Y Y Y Y H F F m = O.[ [ ^ R + j.( ( + + ",
"[ R = w.i.i.h.h.w.w.w.w.h.h.h.w.%.+.+.[ = 0.w.0.<.%.+ g h G + + ",
"X X X X X X X X X X X X X X X X X o o o o o o = = = + j.( ( + + ",
"t 9 3 3 3 3 3 3 3 * * X F m m m m j j t 3 3 3 3 = Y + z.( ( + + ",
"Y H H H H H H F V m m X [ ^ ^ ^ ^ ^ ^ H F m m V = 0.+ j.( ( + + ",
"w.0.0.0.%.%.%.%.[ ) ^ . i.0.0.0.0.0.0.%.[ ) ) [ = i.+ g h G + + ",
"o o o o o o o o o o X   . . . . X X o o o o o o = = + j.( ( + + ",
"H H H H F m m m q q q q 3 ; 0 t = Y H F V m m t t t + z.( ( + O ",
"<.@.@.@.[ ^ ^ ^ H H ^ R H V m V = <.@.@.[ ^ ^ ^ ^ ^ + j.( ( O O ",
"k.h.h.i.w.0.0.i.0.0.0.%.O.^ R H = 0.w.w.0.<.<.<.<.<.+ g G G O O ",
"= = = = = = = = = = = = = = = = = = = = X o o = = = + j.( ( + + ",
"V m m t t t = H F F F V c t t t t t 3 t o R Y Y H F + z.( ( + + ",
"R R H F F H o 0.[ [ [ [ ^ R R R F V q j o 0.[ [ [ ^ + j.( ( + + ",
"h.w.w.0.%.[ o h.h.h.h.i.w.%.%.%.%.[ R R o i.w.w.w.2.+ g G G + + ",
"= = = = o o . . . X o o = = = = . X o o   . X o o = + j.( ( + + ",
") H H H H H F V V V V m c t 3 $ o R H H H H F V m m + z.( ( + + "
};
